%TF.GenerationSoftware,KiCad,Pcbnew,9.0.6*%
%TF.CreationDate,2026-01-04T15:49:14-06:00*%
%TF.ProjectId,spo2_project,73706f32-5f70-4726-9f6a-6563742e6b69,rev?*%
%TF.SameCoordinates,Original*%
%TF.FileFunction,Copper,L1,Top*%
%TF.FilePolarity,Positive*%
%FSLAX46Y46*%
G04 Gerber Fmt 4.6, Leading zero omitted, Abs format (unit mm)*
G04 Created by KiCad (PCBNEW 9.0.6) date 2026-01-04 15:49:14*
%MOMM*%
%LPD*%
G01*
G04 APERTURE LIST*
%TA.AperFunction,ComponentPad*%
%ADD10R,1.524000X1.524000*%
%TD*%
%TA.AperFunction,ComponentPad*%
%ADD11C,1.524000*%
%TD*%
%TA.AperFunction,ComponentPad*%
%ADD12C,1.600000*%
%TD*%
%TA.AperFunction,ComponentPad*%
%ADD13R,1.800000X1.800000*%
%TD*%
%TA.AperFunction,ComponentPad*%
%ADD14C,1.800000*%
%TD*%
%TA.AperFunction,ComponentPad*%
%ADD15C,2.000000*%
%TD*%
%TA.AperFunction,ComponentPad*%
%ADD16R,1.600000X1.600000*%
%TD*%
%TA.AperFunction,ComponentPad*%
%ADD17O,1.600000X1.600000*%
%TD*%
%TA.AperFunction,ViaPad*%
%ADD18C,0.600000*%
%TD*%
%TA.AperFunction,Conductor*%
%ADD19C,0.200000*%
%TD*%
%TA.AperFunction,Conductor*%
%ADD20C,0.400000*%
%TD*%
G04 APERTURE END LIST*
D10*
%TO.P,U1,1,INT*%
%TO.N,unconnected-(U1-INT-Pad1)*%
X84320000Y-101400000D03*
D11*
%TO.P,U1,2,SDA*%
%TO.N,Net-(A1-A4)*%
X86860000Y-101400000D03*
%TO.P,U1,3,SCL*%
%TO.N,Net-(A1-A5)*%
X89400000Y-101400000D03*
%TO.P,U1,4,GND*%
%TO.N,GND*%
X91940000Y-101400000D03*
%TO.P,U1,5,VCC*%
%TO.N,+5V*%
X94480000Y-101400000D03*
%TD*%
D12*
%TO.P,C3,1*%
%TO.N,Net-(A1-D4)*%
X134500000Y-89600000D03*
%TO.P,C3,2*%
%TO.N,GND*%
X134500000Y-84600000D03*
%TD*%
D10*
%TO.P,U2,1,GND*%
%TO.N,GND*%
X92190000Y-72400000D03*
D11*
%TO.P,U2,2,VCC*%
%TO.N,+5V*%
X94730000Y-72400000D03*
%TO.P,U2,3,SCL*%
%TO.N,Net-(A1-A5)*%
X97270000Y-72400000D03*
%TO.P,U2,4,SDA*%
%TO.N,Net-(A1-A4)*%
X99810000Y-72400000D03*
%TD*%
D13*
%TO.P,ALARM,1,K*%
%TO.N,GND*%
X151840000Y-75300000D03*
D14*
%TO.P,ALARM,2,A*%
%TO.N,Net-(D1-A)*%
X149300000Y-75300000D03*
%TD*%
D15*
%TO.P,SW1,1,1*%
%TO.N,GND*%
X145750000Y-107550000D03*
X152250000Y-107550000D03*
%TO.P,SW1,2,2*%
%TO.N,Net-(A1-D2)*%
X145750000Y-112050000D03*
X152250000Y-112050000D03*
%TD*%
D12*
%TO.P,C1,1*%
%TO.N,Net-(A1-D2)*%
X134200000Y-112000000D03*
%TO.P,C1,2*%
%TO.N,GND*%
X134200000Y-107000000D03*
%TD*%
%TO.P,R3,1*%
%TO.N,+5V*%
X139500000Y-82000000D03*
%TO.P,R3,2*%
%TO.N,Net-(A1-D4)*%
X139500000Y-89620000D03*
%TD*%
D16*
%TO.P,A1,1,D1/TX*%
%TO.N,unconnected-(A1-D1{slash}TX-Pad1)*%
X128240000Y-111000000D03*
D17*
%TO.P,A1,2,D0/RX*%
%TO.N,unconnected-(A1-D0{slash}RX-Pad2)*%
X128240000Y-108460000D03*
%TO.P,A1,3,~{RESET}*%
%TO.N,unconnected-(A1-~{RESET}-Pad3)*%
X128240000Y-105920000D03*
%TO.P,A1,4,GND*%
%TO.N,GND*%
X128240000Y-103380000D03*
%TO.P,A1,5,D2*%
%TO.N,Net-(A1-D2)*%
X128240000Y-100840000D03*
%TO.P,A1,6,D3*%
%TO.N,Net-(A1-D3)*%
X128240000Y-98300000D03*
%TO.P,A1,7,D4*%
%TO.N,Net-(A1-D4)*%
X128240000Y-95760000D03*
%TO.P,A1,8,D5*%
%TO.N,unconnected-(A1-D5-Pad8)*%
X128240000Y-93220000D03*
%TO.P,A1,9,D6*%
%TO.N,unconnected-(A1-D6-Pad9)*%
X128240000Y-90680000D03*
%TO.P,A1,10,D7*%
%TO.N,unconnected-(A1-D7-Pad10)*%
X128240000Y-88140000D03*
%TO.P,A1,11,D8*%
%TO.N,unconnected-(A1-D8-Pad11)*%
X128240000Y-85600000D03*
%TO.P,A1,12,D9*%
%TO.N,unconnected-(A1-D9-Pad12)*%
X128240000Y-83060000D03*
%TO.P,A1,13,D10*%
%TO.N,unconnected-(A1-D10-Pad13)*%
X128240000Y-80520000D03*
%TO.P,A1,14,D11*%
%TO.N,unconnected-(A1-D11-Pad14)*%
X128240000Y-77980000D03*
%TO.P,A1,15,D12*%
%TO.N,Net-(A1-D12)*%
X128240000Y-75440000D03*
%TO.P,A1,16,D13*%
%TO.N,unconnected-(A1-D13-Pad16)*%
X113000000Y-75440000D03*
%TO.P,A1,17,3V3*%
%TO.N,unconnected-(A1-3V3-Pad17)*%
X113000000Y-77980000D03*
%TO.P,A1,18,AREF*%
%TO.N,unconnected-(A1-AREF-Pad18)*%
X113000000Y-80520000D03*
%TO.P,A1,19,A0*%
%TO.N,unconnected-(A1-A0-Pad19)*%
X113000000Y-83060000D03*
%TO.P,A1,20,A1*%
%TO.N,unconnected-(A1-A1-Pad20)*%
X113000000Y-85600000D03*
%TO.P,A1,21,A2*%
%TO.N,unconnected-(A1-A2-Pad21)*%
X113000000Y-88140000D03*
%TO.P,A1,22,A3*%
%TO.N,unconnected-(A1-A3-Pad22)*%
X113000000Y-90680000D03*
%TO.P,A1,23,A4*%
%TO.N,Net-(A1-A4)*%
X113000000Y-93220000D03*
%TO.P,A1,24,A5*%
%TO.N,Net-(A1-A5)*%
X113000000Y-95760000D03*
%TO.P,A1,25,A6*%
%TO.N,unconnected-(A1-A6-Pad25)*%
X113000000Y-98300000D03*
%TO.P,A1,26,A7*%
%TO.N,unconnected-(A1-A7-Pad26)*%
X113000000Y-100840000D03*
%TO.P,A1,27,+5V*%
%TO.N,+5V*%
X113000000Y-103380000D03*
%TO.P,A1,28,~{RESET}*%
%TO.N,unconnected-(A1-~{RESET}-Pad28)*%
X113000000Y-105920000D03*
%TO.P,A1,29,GND*%
%TO.N,GND*%
X113000000Y-108460000D03*
%TO.P,A1,30,VIN*%
%TO.N,unconnected-(A1-VIN-Pad30)*%
X113000000Y-111000000D03*
%TD*%
D15*
%TO.P,SW2,1,1*%
%TO.N,GND*%
X145750000Y-96150000D03*
X152250000Y-96150000D03*
%TO.P,SW2,2,2*%
%TO.N,Net-(A1-D3)*%
X145750000Y-100650000D03*
X152250000Y-100650000D03*
%TD*%
D12*
%TO.P,R4,1*%
%TO.N,Net-(A1-D12)*%
X132900000Y-75200000D03*
%TO.P,R4,2*%
%TO.N,Net-(D1-A)*%
X140520000Y-75200000D03*
%TD*%
%TO.P,C2,1*%
%TO.N,Net-(A1-D3)*%
X134000000Y-100600000D03*
%TO.P,C2,2*%
%TO.N,GND*%
X134000000Y-95600000D03*
%TD*%
%TO.P,R1,1*%
%TO.N,+5V*%
X139500000Y-104440000D03*
%TO.P,R1,2*%
%TO.N,Net-(A1-D2)*%
X139500000Y-112060000D03*
%TD*%
%TO.P,R2,1*%
%TO.N,+5V*%
X139500000Y-93000000D03*
%TO.P,R2,2*%
%TO.N,Net-(A1-D3)*%
X139500000Y-100620000D03*
%TD*%
D15*
%TO.P,SW3,1,1*%
%TO.N,GND*%
X145500000Y-85100000D03*
X152000000Y-85100000D03*
%TO.P,SW3,2,2*%
%TO.N,Net-(A1-D4)*%
X145500000Y-89600000D03*
X152000000Y-89600000D03*
%TD*%
D18*
%TO.N,Net-(A1-A4)*%
X99920000Y-93220000D03*
%TO.N,Net-(A1-A5)*%
X97300000Y-93800000D03*
%TD*%
D19*
%TO.N,Net-(A1-A4)*%
X99920000Y-93220000D02*
X95040000Y-93220000D01*
X95040000Y-93220000D02*
X86860000Y-101400000D01*
X113000000Y-93220000D02*
X99920000Y-93220000D01*
D20*
%TO.N,Net-(A1-D2)*%
X145740000Y-112060000D02*
X145750000Y-112050000D01*
D19*
X145750000Y-112050000D02*
X152250000Y-112050000D01*
X128240000Y-100840000D02*
X131000000Y-103600000D01*
X131000000Y-112000000D02*
X134200000Y-112000000D01*
X134200000Y-112000000D02*
X139440000Y-112000000D01*
X131000000Y-103600000D02*
X131000000Y-112000000D01*
X139500000Y-112060000D02*
X145740000Y-112060000D01*
D20*
X139440000Y-112000000D02*
X139500000Y-112060000D01*
D19*
%TO.N,Net-(A1-A5)*%
X89400000Y-99700000D02*
X89400000Y-101400000D01*
X95300000Y-93800000D02*
X89400000Y-99700000D01*
X111040000Y-93800000D02*
X97300000Y-93800000D01*
X97300000Y-93800000D02*
X95300000Y-93800000D01*
X113000000Y-95760000D02*
X111040000Y-93800000D01*
%TO.N,+5V*%
X139500000Y-104440000D02*
X133435233Y-104440000D01*
X116668000Y-99712000D02*
X113000000Y-103380000D01*
X133435233Y-104440000D02*
X128707233Y-99712000D01*
D20*
X111020000Y-101400000D02*
X113000000Y-103380000D01*
D19*
X128707233Y-99712000D02*
X116668000Y-99712000D01*
D20*
X94480000Y-101400000D02*
X111020000Y-101400000D01*
D19*
%TO.N,Net-(A1-D12)*%
X128240000Y-75440000D02*
X132660000Y-75440000D01*
D20*
X132660000Y-75440000D02*
X132900000Y-75200000D01*
D19*
%TO.N,Net-(A1-D3)*%
X131700000Y-98300000D02*
X134000000Y-100600000D01*
X139500000Y-100620000D02*
X145720000Y-100620000D01*
X134000000Y-100600000D02*
X139480000Y-100600000D01*
D20*
X139480000Y-100600000D02*
X139500000Y-100620000D01*
X145720000Y-100620000D02*
X145750000Y-100650000D01*
D19*
X128240000Y-98300000D02*
X131700000Y-98300000D01*
X145750000Y-100650000D02*
X152250000Y-100650000D01*
%TO.N,Net-(A1-D4)*%
X134500000Y-89600000D02*
X139480000Y-89600000D01*
X145500000Y-89600000D02*
X152000000Y-89600000D01*
X131100000Y-92900000D02*
X131100000Y-89600000D01*
X139500000Y-89620000D02*
X145480000Y-89620000D01*
X131100000Y-89600000D02*
X134500000Y-89600000D01*
D20*
X145480000Y-89620000D02*
X145500000Y-89600000D01*
X139480000Y-89600000D02*
X139500000Y-89620000D01*
D19*
X128240000Y-95760000D02*
X131100000Y-92900000D01*
D20*
%TO.N,Net-(D1-A)*%
X149200000Y-75200000D02*
X149300000Y-75300000D01*
D19*
X140520000Y-75200000D02*
X149200000Y-75200000D01*
%TD*%
%TA.AperFunction,Conductor*%
%TO.N,GND*%
G36*
X96787273Y-94420185D02*
G01*
X96789125Y-94421398D01*
X96920814Y-94509390D01*
X96920827Y-94509397D01*
X97066498Y-94569735D01*
X97066503Y-94569737D01*
X97221083Y-94600485D01*
X97221153Y-94600499D01*
X97221156Y-94600500D01*
X97221158Y-94600500D01*
X97378844Y-94600500D01*
X97378845Y-94600499D01*
X97533497Y-94569737D01*
X97679179Y-94509394D01*
X97708204Y-94490000D01*
X97810875Y-94421398D01*
X97877553Y-94400520D01*
X97879766Y-94400500D01*
X110739903Y-94400500D01*
X110806942Y-94420185D01*
X110827584Y-94436819D01*
X111705921Y-95315157D01*
X111739406Y-95376480D01*
X111736173Y-95441149D01*
X111731523Y-95455460D01*
X111731523Y-95455462D01*
X111699500Y-95657648D01*
X111699500Y-95862351D01*
X111731522Y-96064534D01*
X111794781Y-96259223D01*
X111887715Y-96441613D01*
X112008028Y-96607213D01*
X112152786Y-96751971D01*
X112307749Y-96864556D01*
X112318390Y-96872287D01*
X112409840Y-96918883D01*
X112411080Y-96919515D01*
X112461876Y-96967490D01*
X112478671Y-97035311D01*
X112456134Y-97101446D01*
X112411080Y-97140485D01*
X112318386Y-97187715D01*
X112152786Y-97308028D01*
X112008028Y-97452786D01*
X111887715Y-97618386D01*
X111794781Y-97800776D01*
X111731522Y-97995465D01*
X111699500Y-98197648D01*
X111699500Y-98402351D01*
X111731522Y-98604534D01*
X111794781Y-98799223D01*
X111887715Y-98981613D01*
X112008028Y-99147213D01*
X112152786Y-99291971D01*
X112255585Y-99366657D01*
X112318390Y-99412287D01*
X112409840Y-99458883D01*
X112411080Y-99459515D01*
X112461876Y-99507490D01*
X112478671Y-99575311D01*
X112456134Y-99641446D01*
X112411080Y-99680485D01*
X112318386Y-99727715D01*
X112152786Y-99848028D01*
X112008028Y-99992786D01*
X111887715Y-100158386D01*
X111794781Y-100340776D01*
X111731522Y-100535465D01*
X111699500Y-100737648D01*
X111699500Y-100789480D01*
X111679815Y-100856519D01*
X111627011Y-100902274D01*
X111557853Y-100912218D01*
X111494297Y-100883193D01*
X111487819Y-100877161D01*
X111466545Y-100855887D01*
X111351807Y-100779222D01*
X111224332Y-100726421D01*
X111224322Y-100726418D01*
X111088996Y-100699500D01*
X111088994Y-100699500D01*
X111088993Y-100699500D01*
X95594774Y-100699500D01*
X95527735Y-100679815D01*
X95494457Y-100648387D01*
X95442981Y-100577536D01*
X95302464Y-100437019D01*
X95141694Y-100320213D01*
X95135508Y-100317061D01*
X94964632Y-100229994D01*
X94964629Y-100229993D01*
X94775637Y-100168587D01*
X94677498Y-100153043D01*
X94579361Y-100137500D01*
X94380639Y-100137500D01*
X94315214Y-100147862D01*
X94184362Y-100168587D01*
X93995370Y-100229993D01*
X93995367Y-100229994D01*
X93818305Y-100320213D01*
X93657533Y-100437021D01*
X93517021Y-100577533D01*
X93400213Y-100738305D01*
X93320204Y-100895331D01*
X93272229Y-100946127D01*
X93204408Y-100962922D01*
X93138273Y-100940384D01*
X93099234Y-100895331D01*
X93019358Y-100738567D01*
X92992268Y-100701283D01*
X92321000Y-101372551D01*
X92321000Y-101349840D01*
X92295036Y-101252939D01*
X92244876Y-101166060D01*
X92173940Y-101095124D01*
X92087061Y-101044964D01*
X91990160Y-101019000D01*
X91967447Y-101019000D01*
X92638716Y-100347731D01*
X92638715Y-100347730D01*
X92601432Y-100320641D01*
X92424437Y-100230457D01*
X92235522Y-100169075D01*
X92039321Y-100138000D01*
X91840679Y-100138000D01*
X91644479Y-100169075D01*
X91644476Y-100169075D01*
X91455562Y-100230457D01*
X91278564Y-100320643D01*
X91241283Y-100347729D01*
X91241282Y-100347730D01*
X91912554Y-101019000D01*
X91889840Y-101019000D01*
X91792939Y-101044964D01*
X91706060Y-101095124D01*
X91635124Y-101166060D01*
X91584964Y-101252939D01*
X91559000Y-101349840D01*
X91559000Y-101372552D01*
X90887730Y-100701282D01*
X90887729Y-100701283D01*
X90860641Y-100738566D01*
X90780764Y-100895332D01*
X90732790Y-100946127D01*
X90664969Y-100962922D01*
X90598834Y-100940384D01*
X90559796Y-100895332D01*
X90479787Y-100738306D01*
X90362981Y-100577536D01*
X90222464Y-100437019D01*
X90061694Y-100320213D01*
X90061690Y-100320210D01*
X90059715Y-100319000D01*
X90059121Y-100318343D01*
X90057752Y-100317349D01*
X90057960Y-100317061D01*
X90052746Y-100311298D01*
X90043297Y-100306983D01*
X90029703Y-100285831D01*
X90012837Y-100267190D01*
X90010135Y-100255381D01*
X90005523Y-100248205D01*
X90000500Y-100213270D01*
X90000500Y-100000097D01*
X90020185Y-99933058D01*
X90036819Y-99912416D01*
X95512416Y-94436819D01*
X95573739Y-94403334D01*
X95600097Y-94400500D01*
X96720234Y-94400500D01*
X96787273Y-94420185D01*
G37*
%TD.AperFunction*%
%TA.AperFunction,Conductor*%
G36*
X155442539Y-68520185D02*
G01*
X155488294Y-68572989D01*
X155499500Y-68624500D01*
X155499500Y-117375500D01*
X155479815Y-117442539D01*
X155427011Y-117488294D01*
X155375500Y-117499500D01*
X81624500Y-117499500D01*
X81557461Y-117479815D01*
X81511706Y-117427011D01*
X81500500Y-117375500D01*
X81500500Y-100590135D01*
X83057500Y-100590135D01*
X83057500Y-102209870D01*
X83057501Y-102209876D01*
X83063908Y-102269483D01*
X83114202Y-102404328D01*
X83114206Y-102404335D01*
X83200452Y-102519544D01*
X83200455Y-102519547D01*
X83315664Y-102605793D01*
X83315671Y-102605797D01*
X83450517Y-102656091D01*
X83450516Y-102656091D01*
X83457444Y-102656835D01*
X83510127Y-102662500D01*
X85129872Y-102662499D01*
X85189483Y-102656091D01*
X85324331Y-102605796D01*
X85439546Y-102519546D01*
X85525796Y-102404331D01*
X85576091Y-102269483D01*
X85582500Y-102209873D01*
X85582499Y-102171197D01*
X85602182Y-102104161D01*
X85654985Y-102058405D01*
X85724143Y-102048460D01*
X85787699Y-102077483D01*
X85806817Y-102098312D01*
X85819371Y-102115591D01*
X85897019Y-102222464D01*
X86037536Y-102362981D01*
X86198306Y-102479787D01*
X86276333Y-102519544D01*
X86375367Y-102570005D01*
X86375370Y-102570006D01*
X86469866Y-102600709D01*
X86564364Y-102631413D01*
X86760639Y-102662500D01*
X86760640Y-102662500D01*
X86959360Y-102662500D01*
X86959361Y-102662500D01*
X87155636Y-102631413D01*
X87344632Y-102570005D01*
X87521694Y-102479787D01*
X87682464Y-102362981D01*
X87822981Y-102222464D01*
X87939787Y-102061694D01*
X88019515Y-101905218D01*
X88067490Y-101854423D01*
X88135311Y-101837628D01*
X88201446Y-101860165D01*
X88240484Y-101905218D01*
X88320213Y-102061694D01*
X88437019Y-102222464D01*
X88577536Y-102362981D01*
X88738306Y-102479787D01*
X88816333Y-102519544D01*
X88915367Y-102570005D01*
X88915370Y-102570006D01*
X89009866Y-102600709D01*
X89104364Y-102631413D01*
X89300639Y-102662500D01*
X89300640Y-102662500D01*
X89499360Y-102662500D01*
X89499361Y-102662500D01*
X89695636Y-102631413D01*
X89884632Y-102570005D01*
X90061694Y-102479787D01*
X90222464Y-102362981D01*
X90362981Y-102222464D01*
X90479787Y-102061694D01*
X90559796Y-101904667D01*
X90607769Y-101853872D01*
X90675590Y-101837077D01*
X90741725Y-101859614D01*
X90780765Y-101904668D01*
X90860641Y-102061432D01*
X90887730Y-102098715D01*
X90887731Y-102098716D01*
X91559000Y-101427447D01*
X91559000Y-101450160D01*
X91584964Y-101547061D01*
X91635124Y-101633940D01*
X91706060Y-101704876D01*
X91792939Y-101755036D01*
X91889840Y-101781000D01*
X91912553Y-101781000D01*
X91241283Y-102452268D01*
X91241283Y-102452269D01*
X91278567Y-102479358D01*
X91455562Y-102569542D01*
X91644477Y-102630924D01*
X91840679Y-102662000D01*
X92039321Y-102662000D01*
X92235520Y-102630924D01*
X92235523Y-102630924D01*
X92424437Y-102569542D01*
X92601425Y-102479362D01*
X92638716Y-102452268D01*
X91967448Y-101781000D01*
X91990160Y-101781000D01*
X92087061Y-101755036D01*
X92173940Y-101704876D01*
X92244876Y-101633940D01*
X92295036Y-101547061D01*
X92321000Y-101450160D01*
X92321000Y-101427447D01*
X92992268Y-102098715D01*
X93019364Y-102061422D01*
X93099234Y-101904669D01*
X93147208Y-101853872D01*
X93215029Y-101837077D01*
X93281164Y-101859614D01*
X93320203Y-101904667D01*
X93400213Y-102061694D01*
X93517019Y-102222464D01*
X93657536Y-102362981D01*
X93818306Y-102479787D01*
X93896333Y-102519544D01*
X93995367Y-102570005D01*
X93995370Y-102570006D01*
X94089866Y-102600709D01*
X94184364Y-102631413D01*
X94380639Y-102662500D01*
X94380640Y-102662500D01*
X94579360Y-102662500D01*
X94579361Y-102662500D01*
X94775636Y-102631413D01*
X94964632Y-102570005D01*
X95141694Y-102479787D01*
X95302464Y-102362981D01*
X95442981Y-102222464D01*
X95494457Y-102151613D01*
X95549786Y-102108949D01*
X95594774Y-102100500D01*
X110678481Y-102100500D01*
X110745520Y-102120185D01*
X110766162Y-102136819D01*
X111683194Y-103053851D01*
X111716679Y-103115174D01*
X111717986Y-103160929D01*
X111699500Y-103277647D01*
X111699500Y-103482351D01*
X111731522Y-103684534D01*
X111794781Y-103879223D01*
X111887715Y-104061613D01*
X112008028Y-104227213D01*
X112152786Y-104371971D01*
X112307749Y-104484556D01*
X112318390Y-104492287D01*
X112409840Y-104538883D01*
X112411080Y-104539515D01*
X112461876Y-104587490D01*
X112478671Y-104655311D01*
X112456134Y-104721446D01*
X112411080Y-104760485D01*
X112318386Y-104807715D01*
X112152786Y-104928028D01*
X112008028Y-105072786D01*
X111887715Y-105238386D01*
X111794781Y-105420776D01*
X111731522Y-105615465D01*
X111699500Y-105817648D01*
X111699500Y-106022351D01*
X111731522Y-106224534D01*
X111794781Y-106419223D01*
X111887715Y-106601613D01*
X112008028Y-106767213D01*
X112152786Y-106911971D01*
X112307749Y-107024556D01*
X112318390Y-107032287D01*
X112390424Y-107068990D01*
X112411629Y-107079795D01*
X112462425Y-107127770D01*
X112479220Y-107195591D01*
X112456682Y-107261726D01*
X112411629Y-107300765D01*
X112318650Y-107348140D01*
X112153105Y-107468417D01*
X112153104Y-107468417D01*
X112008417Y-107613104D01*
X112008417Y-107613105D01*
X111888140Y-107778650D01*
X111795244Y-107960970D01*
X111732009Y-108155586D01*
X111723391Y-108210000D01*
X112566988Y-108210000D01*
X112534075Y-108267007D01*
X112500000Y-108394174D01*
X112500000Y-108525826D01*
X112534075Y-108652993D01*
X112566988Y-108710000D01*
X111723391Y-108710000D01*
X111732009Y-108764413D01*
X111795244Y-108959029D01*
X111888140Y-109141349D01*
X112008417Y-109306894D01*
X112008417Y-109306895D01*
X112153104Y-109451582D01*
X112318652Y-109571861D01*
X112411628Y-109619234D01*
X112462425Y-109667208D01*
X112479220Y-109735029D01*
X112456683Y-109801164D01*
X112411630Y-109840203D01*
X112318388Y-109887713D01*
X112152786Y-110008028D01*
X112008028Y-110152786D01*
X111887715Y-110318386D01*
X111794781Y-110500776D01*
X111731522Y-110695465D01*
X111699500Y-110897648D01*
X111699500Y-111102351D01*
X111731522Y-111304534D01*
X111794781Y-111499223D01*
X111887715Y-111681613D01*
X112008028Y-111847213D01*
X112152786Y-111991971D01*
X112272651Y-112079056D01*
X112318390Y-112112287D01*
X112407212Y-112157544D01*
X112500776Y-112205218D01*
X112500778Y-112205218D01*
X112500781Y-112205220D01*
X112582537Y-112231784D01*
X112695465Y-112268477D01*
X112796557Y-112284488D01*
X112897648Y-112300500D01*
X112897649Y-112300500D01*
X113102351Y-112300500D01*
X113102352Y-112300500D01*
X113304534Y-112268477D01*
X113499219Y-112205220D01*
X113681610Y-112112287D01*
X113777901Y-112042328D01*
X113847213Y-111991971D01*
X113847215Y-111991968D01*
X113847219Y-111991966D01*
X113991966Y-111847219D01*
X113991968Y-111847215D01*
X113991971Y-111847213D01*
X114044732Y-111774590D01*
X114112287Y-111681610D01*
X114205220Y-111499219D01*
X114268477Y-111304534D01*
X114300500Y-111102352D01*
X114300500Y-110897648D01*
X114268477Y-110695466D01*
X114205220Y-110500781D01*
X114205218Y-110500778D01*
X114205218Y-110500776D01*
X114171503Y-110434607D01*
X114112287Y-110318390D01*
X114104556Y-110307749D01*
X113991971Y-110152786D01*
X113847213Y-110008028D01*
X113681611Y-109887713D01*
X113588369Y-109840203D01*
X113537574Y-109792229D01*
X113520779Y-109724407D01*
X113543317Y-109658273D01*
X113588371Y-109619234D01*
X113681347Y-109571861D01*
X113846894Y-109451582D01*
X113846895Y-109451582D01*
X113991582Y-109306895D01*
X113991582Y-109306894D01*
X114111859Y-109141349D01*
X114204755Y-108959029D01*
X114267990Y-108764413D01*
X114276609Y-108710000D01*
X113433012Y-108710000D01*
X113465925Y-108652993D01*
X113500000Y-108525826D01*
X113500000Y-108394174D01*
X113465925Y-108267007D01*
X113433012Y-108210000D01*
X114276609Y-108210000D01*
X114267990Y-108155586D01*
X114204755Y-107960970D01*
X114111859Y-107778650D01*
X113991582Y-107613105D01*
X113991582Y-107613104D01*
X113846895Y-107468417D01*
X113681349Y-107348140D01*
X113588370Y-107300765D01*
X113537574Y-107252790D01*
X113520779Y-107184969D01*
X113543316Y-107118835D01*
X113588370Y-107079795D01*
X113588920Y-107079515D01*
X113681610Y-107032287D01*
X113798532Y-106947339D01*
X113847213Y-106911971D01*
X113847215Y-106911968D01*
X113847219Y-106911966D01*
X113991966Y-106767219D01*
X113991968Y-106767215D01*
X113991971Y-106767213D01*
X114079712Y-106646446D01*
X114112287Y-106601610D01*
X114205220Y-106419219D01*
X114268477Y-106224534D01*
X114300500Y-106022352D01*
X114300500Y-105817648D01*
X114268477Y-105615465D01*
X114205218Y-105420776D01*
X114171503Y-105354607D01*
X114112287Y-105238390D01*
X114104556Y-105227749D01*
X113991971Y-105072786D01*
X113847213Y-104928028D01*
X113681614Y-104807715D01*
X113675006Y-104804348D01*
X113588917Y-104760483D01*
X113538123Y-104712511D01*
X113521328Y-104644690D01*
X113543865Y-104578555D01*
X113588917Y-104539516D01*
X113681610Y-104492287D01*
X113702770Y-104476913D01*
X113847213Y-104371971D01*
X113847215Y-104371968D01*
X113847219Y-104371966D01*
X113991966Y-104227219D01*
X113991968Y-104227215D01*
X113991971Y-104227213D01*
X114058628Y-104135466D01*
X114112287Y-104061610D01*
X114205220Y-103879219D01*
X114268477Y-103684534D01*
X114300500Y-103482352D01*
X114300500Y-103277648D01*
X114278115Y-103136315D01*
X114268478Y-103075472D01*
X114268477Y-103075471D01*
X114268477Y-103075466D01*
X114263825Y-103061151D01*
X114261832Y-102991312D01*
X114294075Y-102935158D01*
X116880416Y-100348819D01*
X116941739Y-100315334D01*
X116968097Y-100312500D01*
X126873297Y-100312500D01*
X126940336Y-100332185D01*
X126986091Y-100384989D01*
X126996035Y-100454147D01*
X126991228Y-100474818D01*
X126971523Y-100535461D01*
X126971523Y-100535464D01*
X126939500Y-100737648D01*
X126939500Y-100942351D01*
X126971522Y-101144534D01*
X127034781Y-101339223D01*
X127127715Y-101521613D01*
X127248028Y-101687213D01*
X127392786Y-101831971D01*
X127547749Y-101944556D01*
X127558390Y-101952287D01*
X127630424Y-101988990D01*
X127651629Y-101999795D01*
X127702425Y-102047770D01*
X127719220Y-102115591D01*
X127696682Y-102181726D01*
X127651629Y-102220765D01*
X127558650Y-102268140D01*
X127393105Y-102388417D01*
X127393104Y-102388417D01*
X127248417Y-102533104D01*
X127248417Y-102533105D01*
X127128140Y-102698650D01*
X127035244Y-102880970D01*
X126972009Y-103075586D01*
X126963391Y-103130000D01*
X127806988Y-103130000D01*
X127774075Y-103187007D01*
X127740000Y-103314174D01*
X127740000Y-103445826D01*
X127774075Y-103572993D01*
X127806988Y-103630000D01*
X126963391Y-103630000D01*
X126972009Y-103684413D01*
X127035244Y-103879029D01*
X127128140Y-104061349D01*
X127248417Y-104226894D01*
X127248417Y-104226895D01*
X127393104Y-104371582D01*
X127558652Y-104491861D01*
X127651628Y-104539234D01*
X127702425Y-104587208D01*
X127719220Y-104655029D01*
X127696683Y-104721164D01*
X127651630Y-104760203D01*
X127558388Y-104807713D01*
X127392786Y-104928028D01*
X127248028Y-105072786D01*
X127127715Y-105238386D01*
X127034781Y-105420776D01*
X126971522Y-105615465D01*
X126939500Y-105817648D01*
X126939500Y-106022351D01*
X126971522Y-106224534D01*
X127034781Y-106419223D01*
X127127715Y-106601613D01*
X127248028Y-106767213D01*
X127392786Y-106911971D01*
X127547749Y-107024556D01*
X127558390Y-107032287D01*
X127649840Y-107078883D01*
X127651080Y-107079515D01*
X127701876Y-107127490D01*
X127718671Y-107195311D01*
X127696134Y-107261446D01*
X127651080Y-107300485D01*
X127558386Y-107347715D01*
X127392786Y-107468028D01*
X127248028Y-107612786D01*
X127127715Y-107778386D01*
X127034781Y-107960776D01*
X126971522Y-108155465D01*
X126939500Y-108357648D01*
X126939500Y-108562351D01*
X126971522Y-108764534D01*
X127034781Y-108959223D01*
X127127715Y-109141613D01*
X127248028Y-109307213D01*
X127392784Y-109451969D01*
X127429068Y-109478330D01*
X127471735Y-109533659D01*
X127477715Y-109603273D01*
X127445109Y-109665068D01*
X127384271Y-109699426D01*
X127369440Y-109701938D01*
X127332519Y-109705907D01*
X127197671Y-109756202D01*
X127197664Y-109756206D01*
X127082455Y-109842452D01*
X127082452Y-109842455D01*
X126996206Y-109957664D01*
X126996202Y-109957671D01*
X126945908Y-110092517D01*
X126939501Y-110152116D01*
X126939501Y-110152123D01*
X126939500Y-110152135D01*
X126939500Y-111847870D01*
X126939501Y-111847876D01*
X126945908Y-111907483D01*
X126996202Y-112042328D01*
X126996206Y-112042335D01*
X127082452Y-112157544D01*
X127082455Y-112157547D01*
X127197664Y-112243793D01*
X127197671Y-112243797D01*
X127332517Y-112294091D01*
X127332516Y-112294091D01*
X127339444Y-112294835D01*
X127392127Y-112300500D01*
X129087872Y-112300499D01*
X129147483Y-112294091D01*
X129282331Y-112243796D01*
X129397546Y-112157546D01*
X129483796Y-112042331D01*
X129534091Y-111907483D01*
X129540500Y-111847873D01*
X129540499Y-110152128D01*
X129534091Y-110092517D01*
X129483796Y-109957669D01*
X129483795Y-109957668D01*
X129483793Y-109957664D01*
X129397547Y-109842455D01*
X129397544Y-109842452D01*
X129282335Y-109756206D01*
X129282328Y-109756202D01*
X129147482Y-109705908D01*
X129147483Y-109705908D01*
X129110560Y-109701939D01*
X129046009Y-109675201D01*
X129006160Y-109617809D01*
X129003667Y-109547984D01*
X129039319Y-109487895D01*
X129050930Y-109478331D01*
X129087219Y-109451966D01*
X129231966Y-109307219D01*
X129231968Y-109307215D01*
X129231971Y-109307213D01*
X129284732Y-109234590D01*
X129352287Y-109141610D01*
X129445220Y-108959219D01*
X129508477Y-108764534D01*
X129540500Y-108562352D01*
X129540500Y-108357648D01*
X129526144Y-108267007D01*
X129508477Y-108155465D01*
X129456038Y-107994075D01*
X129445220Y-107960781D01*
X129445218Y-107960778D01*
X129445218Y-107960776D01*
X129352419Y-107778650D01*
X129352287Y-107778390D01*
X129314167Y-107725922D01*
X129231971Y-107612786D01*
X129087213Y-107468028D01*
X128921614Y-107347715D01*
X128867377Y-107320080D01*
X128828917Y-107300483D01*
X128778123Y-107252511D01*
X128761328Y-107184690D01*
X128783865Y-107118555D01*
X128828917Y-107079516D01*
X128921610Y-107032287D01*
X129038532Y-106947339D01*
X129087213Y-106911971D01*
X129087215Y-106911968D01*
X129087219Y-106911966D01*
X129231966Y-106767219D01*
X129231968Y-106767215D01*
X129231971Y-106767213D01*
X129319712Y-106646446D01*
X129352287Y-106601610D01*
X129445220Y-106419219D01*
X129508477Y-106224534D01*
X129540500Y-106022352D01*
X129540500Y-105817648D01*
X129508477Y-105615465D01*
X129445218Y-105420776D01*
X129411503Y-105354607D01*
X129352287Y-105238390D01*
X129344556Y-105227749D01*
X129231971Y-105072786D01*
X129087213Y-104928028D01*
X128921611Y-104807713D01*
X128828369Y-104760203D01*
X128777574Y-104712229D01*
X128760779Y-104644407D01*
X128783317Y-104578273D01*
X128828371Y-104539234D01*
X128921347Y-104491861D01*
X129086894Y-104371582D01*
X129086895Y-104371582D01*
X129231582Y-104226895D01*
X129231582Y-104226894D01*
X129351859Y-104061349D01*
X129444755Y-103879029D01*
X129507990Y-103684413D01*
X129516609Y-103630000D01*
X128673012Y-103630000D01*
X128705925Y-103572993D01*
X128740000Y-103445826D01*
X128740000Y-103314174D01*
X128705925Y-103187007D01*
X128673012Y-103130000D01*
X129525735Y-103130000D01*
X129563614Y-103105272D01*
X129633482Y-103104772D01*
X129687080Y-103136315D01*
X130363181Y-103812416D01*
X130396666Y-103873739D01*
X130399500Y-103900097D01*
X130399500Y-112079057D01*
X130420532Y-112157547D01*
X130440423Y-112231783D01*
X130440426Y-112231790D01*
X130519475Y-112368709D01*
X130519479Y-112368714D01*
X130519480Y-112368716D01*
X130631284Y-112480520D01*
X130631286Y-112480521D01*
X130631290Y-112480524D01*
X130768209Y-112559573D01*
X130768216Y-112559577D01*
X130920943Y-112600500D01*
X131079057Y-112600500D01*
X132970398Y-112600500D01*
X133037437Y-112620185D01*
X133080882Y-112668204D01*
X133086821Y-112679859D01*
X133087715Y-112681614D01*
X133208028Y-112847213D01*
X133352786Y-112991971D01*
X133435371Y-113051971D01*
X133518390Y-113112287D01*
X133634607Y-113171503D01*
X133700776Y-113205218D01*
X133700778Y-113205218D01*
X133700781Y-113205220D01*
X133805137Y-113239127D01*
X133895465Y-113268477D01*
X133996557Y-113284488D01*
X134097648Y-113300500D01*
X134097649Y-113300500D01*
X134302351Y-113300500D01*
X134302352Y-113300500D01*
X134504534Y-113268477D01*
X134699219Y-113205220D01*
X134881610Y-113112287D01*
X134998295Y-113027511D01*
X135047213Y-112991971D01*
X135047215Y-112991968D01*
X135047219Y-112991966D01*
X135191966Y-112847219D01*
X135191968Y-112847215D01*
X135191971Y-112847213D01*
X135312284Y-112681614D01*
X135312283Y-112681614D01*
X135312287Y-112681610D01*
X135319117Y-112668204D01*
X135367091Y-112617409D01*
X135429602Y-112600500D01*
X138239826Y-112600500D01*
X138306865Y-112620185D01*
X138350311Y-112668205D01*
X138387715Y-112741613D01*
X138508028Y-112907213D01*
X138652786Y-113051971D01*
X138735806Y-113112287D01*
X138818390Y-113172287D01*
X138883021Y-113205218D01*
X139000776Y-113265218D01*
X139000778Y-113265218D01*
X139000781Y-113265220D01*
X139105137Y-113299127D01*
X139195465Y-113328477D01*
X139226188Y-113333343D01*
X139397648Y-113360500D01*
X139397649Y-113360500D01*
X139602351Y-113360500D01*
X139602352Y-113360500D01*
X139804534Y-113328477D01*
X139999219Y-113265220D01*
X140181610Y-113172287D01*
X140274590Y-113104732D01*
X140347213Y-113051971D01*
X140347215Y-113051968D01*
X140347219Y-113051966D01*
X140491966Y-112907219D01*
X140491968Y-112907215D01*
X140491971Y-112907213D01*
X140612284Y-112741614D01*
X140612285Y-112741613D01*
X140612287Y-112741610D01*
X140619117Y-112728204D01*
X140667091Y-112677409D01*
X140729602Y-112660500D01*
X144301027Y-112660500D01*
X144368066Y-112680185D01*
X144411512Y-112728205D01*
X144466657Y-112836433D01*
X144605483Y-113027510D01*
X144772490Y-113194517D01*
X144963567Y-113333343D01*
X145016866Y-113360500D01*
X145174003Y-113440566D01*
X145174005Y-113440566D01*
X145174008Y-113440568D01*
X145294412Y-113479689D01*
X145398631Y-113513553D01*
X145631903Y-113550500D01*
X145631908Y-113550500D01*
X145868097Y-113550500D01*
X146101368Y-113513553D01*
X146325992Y-113440568D01*
X146536433Y-113333343D01*
X146727510Y-113194517D01*
X146894517Y-113027510D01*
X147033343Y-112836433D01*
X147093583Y-112718204D01*
X147141558Y-112667409D01*
X147204068Y-112650500D01*
X150795932Y-112650500D01*
X150862971Y-112670185D01*
X150906416Y-112718203D01*
X150966657Y-112836433D01*
X151105483Y-113027510D01*
X151272490Y-113194517D01*
X151463567Y-113333343D01*
X151516866Y-113360500D01*
X151674003Y-113440566D01*
X151674005Y-113440566D01*
X151674008Y-113440568D01*
X151794412Y-113479689D01*
X151898631Y-113513553D01*
X152131903Y-113550500D01*
X152131908Y-113550500D01*
X152368097Y-113550500D01*
X152601368Y-113513553D01*
X152825992Y-113440568D01*
X153036433Y-113333343D01*
X153227510Y-113194517D01*
X153394517Y-113027510D01*
X153533343Y-112836433D01*
X153640568Y-112625992D01*
X153713553Y-112401368D01*
X153738510Y-112243796D01*
X153750500Y-112168097D01*
X153750500Y-111931902D01*
X153713553Y-111698631D01*
X153648761Y-111499223D01*
X153640568Y-111474008D01*
X153640566Y-111474005D01*
X153640566Y-111474003D01*
X153565669Y-111327011D01*
X153533343Y-111263567D01*
X153394517Y-111072490D01*
X153227510Y-110905483D01*
X153036433Y-110766657D01*
X152967477Y-110731522D01*
X152825996Y-110659433D01*
X152601368Y-110586446D01*
X152368097Y-110549500D01*
X152368092Y-110549500D01*
X152131908Y-110549500D01*
X152131903Y-110549500D01*
X151898631Y-110586446D01*
X151674003Y-110659433D01*
X151463566Y-110766657D01*
X151354550Y-110845862D01*
X151272490Y-110905483D01*
X151272488Y-110905485D01*
X151272487Y-110905485D01*
X151105485Y-111072487D01*
X151105485Y-111072488D01*
X151105483Y-111072490D01*
X151083788Y-111102351D01*
X150966657Y-111263566D01*
X150945783Y-111304534D01*
X150907426Y-111379815D01*
X150906417Y-111381795D01*
X150858442Y-111432591D01*
X150795932Y-111449500D01*
X147204068Y-111449500D01*
X147137029Y-111429815D01*
X147093583Y-111381795D01*
X147033343Y-111263567D01*
X146894517Y-111072490D01*
X146727510Y-110905483D01*
X146536433Y-110766657D01*
X146467477Y-110731522D01*
X146325996Y-110659433D01*
X146101368Y-110586446D01*
X145868097Y-110549500D01*
X145868092Y-110549500D01*
X145631908Y-110549500D01*
X145631903Y-110549500D01*
X145398631Y-110586446D01*
X145174003Y-110659433D01*
X144963566Y-110766657D01*
X144854550Y-110845862D01*
X144772490Y-110905483D01*
X144772488Y-110905485D01*
X144772487Y-110905485D01*
X144605485Y-111072487D01*
X144605485Y-111072488D01*
X144605483Y-111072490D01*
X144583788Y-111102351D01*
X144466657Y-111263566D01*
X144445783Y-111304534D01*
X144401320Y-111391796D01*
X144353348Y-111442591D01*
X144290837Y-111459500D01*
X140729602Y-111459500D01*
X140662563Y-111439815D01*
X140619117Y-111391795D01*
X140618738Y-111391051D01*
X140612287Y-111378390D01*
X140612285Y-111378387D01*
X140612284Y-111378385D01*
X140491971Y-111212786D01*
X140347213Y-111068028D01*
X140181613Y-110947715D01*
X140181612Y-110947714D01*
X140181610Y-110947713D01*
X140098733Y-110905485D01*
X139999223Y-110854781D01*
X139804534Y-110791522D01*
X139629995Y-110763878D01*
X139602352Y-110759500D01*
X139397648Y-110759500D01*
X139373329Y-110763351D01*
X139195465Y-110791522D01*
X139000776Y-110854781D01*
X138818386Y-110947715D01*
X138652786Y-111068028D01*
X138508030Y-111212784D01*
X138462466Y-111275500D01*
X138409512Y-111348384D01*
X138354184Y-111391051D01*
X138309195Y-111399500D01*
X135429602Y-111399500D01*
X135362563Y-111379815D01*
X135319117Y-111331795D01*
X135312287Y-111318390D01*
X135312285Y-111318387D01*
X135312284Y-111318385D01*
X135191971Y-111152786D01*
X135047213Y-111008028D01*
X134881613Y-110887715D01*
X134881612Y-110887714D01*
X134881610Y-110887713D01*
X134824653Y-110858691D01*
X134699223Y-110794781D01*
X134504534Y-110731522D01*
X134329995Y-110703878D01*
X134302352Y-110699500D01*
X134097648Y-110699500D01*
X134073329Y-110703351D01*
X133895465Y-110731522D01*
X133700776Y-110794781D01*
X133518386Y-110887715D01*
X133352786Y-111008028D01*
X133208028Y-111152786D01*
X133087715Y-111318385D01*
X133080883Y-111331795D01*
X133032909Y-111382591D01*
X132970398Y-111399500D01*
X131724500Y-111399500D01*
X131657461Y-111379815D01*
X131611706Y-111327011D01*
X131600500Y-111275500D01*
X131600500Y-106897682D01*
X132900000Y-106897682D01*
X132900000Y-107102317D01*
X132932009Y-107304417D01*
X132995244Y-107499031D01*
X133088141Y-107681350D01*
X133088147Y-107681359D01*
X133120523Y-107725921D01*
X133120524Y-107725922D01*
X133800000Y-107046446D01*
X133800000Y-107052661D01*
X133827259Y-107154394D01*
X133879920Y-107245606D01*
X133954394Y-107320080D01*
X134045606Y-107372741D01*
X134147339Y-107400000D01*
X134153553Y-107400000D01*
X133474076Y-108079474D01*
X133518650Y-108111859D01*
X133700968Y-108204755D01*
X133895582Y-108267990D01*
X134097683Y-108300000D01*
X134302317Y-108300000D01*
X134504417Y-108267990D01*
X134699031Y-108204755D01*
X134881349Y-108111859D01*
X134925921Y-108079474D01*
X134246447Y-107400000D01*
X134252661Y-107400000D01*
X134354394Y-107372741D01*
X134445606Y-107320080D01*
X134520080Y-107245606D01*
X134572741Y-107154394D01*
X134600000Y-107052661D01*
X134600000Y-107046447D01*
X135279474Y-107725921D01*
X135311859Y-107681349D01*
X135404754Y-107499031D01*
X135426552Y-107431947D01*
X144250000Y-107431947D01*
X144250000Y-107668052D01*
X144286934Y-107901247D01*
X144359897Y-108125802D01*
X144467087Y-108336174D01*
X144527338Y-108419104D01*
X144527340Y-108419105D01*
X145226212Y-107720233D01*
X145237482Y-107762292D01*
X145309890Y-107887708D01*
X145412292Y-107990110D01*
X145537708Y-108062518D01*
X145579765Y-108073787D01*
X144880893Y-108772658D01*
X144963828Y-108832914D01*
X145174197Y-108940102D01*
X145398752Y-109013065D01*
X145398751Y-109013065D01*
X145631948Y-109050000D01*
X145868052Y-109050000D01*
X146101247Y-109013065D01*
X146325802Y-108940102D01*
X146536163Y-108832918D01*
X146536169Y-108832914D01*
X146619104Y-108772658D01*
X146619105Y-108772658D01*
X145920233Y-108073787D01*
X145962292Y-108062518D01*
X146087708Y-107990110D01*
X146190110Y-107887708D01*
X146262518Y-107762292D01*
X146273787Y-107720234D01*
X146972658Y-108419105D01*
X146972658Y-108419104D01*
X147032914Y-108336169D01*
X147032918Y-108336163D01*
X147140102Y-108125802D01*
X147213065Y-107901247D01*
X147250000Y-107668052D01*
X147250000Y-107431947D01*
X150750000Y-107431947D01*
X150750000Y-107668052D01*
X150786934Y-107901247D01*
X150859897Y-108125802D01*
X150967087Y-108336174D01*
X151027338Y-108419104D01*
X151027340Y-108419105D01*
X151726212Y-107720233D01*
X151737482Y-107762292D01*
X151809890Y-107887708D01*
X151912292Y-107990110D01*
X152037708Y-108062518D01*
X152079765Y-108073787D01*
X151380893Y-108772658D01*
X151463828Y-108832914D01*
X151674197Y-108940102D01*
X151898752Y-109013065D01*
X151898751Y-109013065D01*
X152131948Y-109050000D01*
X152368052Y-109050000D01*
X152601247Y-109013065D01*
X152825802Y-108940102D01*
X153036163Y-108832918D01*
X153036169Y-108832914D01*
X153119104Y-108772658D01*
X153119105Y-108772658D01*
X152420233Y-108073787D01*
X152462292Y-108062518D01*
X152587708Y-107990110D01*
X152690110Y-107887708D01*
X152762518Y-107762292D01*
X152773787Y-107720234D01*
X153472658Y-108419105D01*
X153472658Y-108419104D01*
X153532914Y-108336169D01*
X153532918Y-108336163D01*
X153640102Y-108125802D01*
X153713065Y-107901247D01*
X153750000Y-107668052D01*
X153750000Y-107431947D01*
X153713065Y-107198752D01*
X153640102Y-106974197D01*
X153532914Y-106763828D01*
X153472658Y-106680894D01*
X153472658Y-106680893D01*
X152773787Y-107379765D01*
X152762518Y-107337708D01*
X152690110Y-107212292D01*
X152587708Y-107109890D01*
X152462292Y-107037482D01*
X152420234Y-107026212D01*
X153119105Y-106327340D01*
X153119104Y-106327338D01*
X153036174Y-106267087D01*
X152825802Y-106159897D01*
X152601247Y-106086934D01*
X152601248Y-106086934D01*
X152368052Y-106050000D01*
X152131948Y-106050000D01*
X151898752Y-106086934D01*
X151674197Y-106159897D01*
X151463830Y-106267084D01*
X151380894Y-106327340D01*
X152079766Y-107026212D01*
X152037708Y-107037482D01*
X151912292Y-107109890D01*
X151809890Y-107212292D01*
X151737482Y-107337708D01*
X151726212Y-107379766D01*
X151027340Y-106680894D01*
X150967084Y-106763830D01*
X150859897Y-106974197D01*
X150786934Y-107198752D01*
X150750000Y-107431947D01*
X147250000Y-107431947D01*
X147213065Y-107198752D01*
X147140102Y-106974197D01*
X147032914Y-106763828D01*
X146972658Y-106680894D01*
X146972658Y-106680893D01*
X146273787Y-107379765D01*
X146262518Y-107337708D01*
X146190110Y-107212292D01*
X146087708Y-107109890D01*
X145962292Y-107037482D01*
X145920234Y-107026212D01*
X146619105Y-106327340D01*
X146619104Y-106327339D01*
X146536174Y-106267087D01*
X146325802Y-106159897D01*
X146101247Y-106086934D01*
X146101248Y-106086934D01*
X145868052Y-106050000D01*
X145631948Y-106050000D01*
X145398752Y-106086934D01*
X145174197Y-106159897D01*
X144963830Y-106267084D01*
X144880894Y-106327340D01*
X145579766Y-107026212D01*
X145537708Y-107037482D01*
X145412292Y-107109890D01*
X145309890Y-107212292D01*
X145237482Y-107337708D01*
X145226212Y-107379766D01*
X144527340Y-106680894D01*
X144467084Y-106763830D01*
X144359897Y-106974197D01*
X144286934Y-107198752D01*
X144250000Y-107431947D01*
X135426552Y-107431947D01*
X135440586Y-107388756D01*
X135467990Y-107304417D01*
X135500000Y-107102317D01*
X135500000Y-106897682D01*
X135467990Y-106695582D01*
X135404755Y-106500968D01*
X135369050Y-106430894D01*
X135369049Y-106430892D01*
X135311861Y-106318652D01*
X135279474Y-106274077D01*
X135279474Y-106274076D01*
X134600000Y-106953551D01*
X134600000Y-106947339D01*
X134572741Y-106845606D01*
X134520080Y-106754394D01*
X134445606Y-106679920D01*
X134354394Y-106627259D01*
X134252661Y-106600000D01*
X134246446Y-106600000D01*
X134925922Y-105920524D01*
X134925921Y-105920523D01*
X134881359Y-105888147D01*
X134881350Y-105888141D01*
X134699031Y-105795244D01*
X134504417Y-105732009D01*
X134302317Y-105700000D01*
X134097683Y-105700000D01*
X133895582Y-105732009D01*
X133700968Y-105795244D01*
X133518644Y-105888143D01*
X133474077Y-105920523D01*
X133474077Y-105920524D01*
X134153554Y-106600000D01*
X134147339Y-106600000D01*
X134045606Y-106627259D01*
X133954394Y-106679920D01*
X133879920Y-106754394D01*
X133827259Y-106845606D01*
X133800000Y-106947339D01*
X133800000Y-106953553D01*
X133120524Y-106274077D01*
X133120523Y-106274077D01*
X133088143Y-106318644D01*
X132995244Y-106500968D01*
X132932009Y-106695582D01*
X132900000Y-106897682D01*
X131600500Y-106897682D01*
X131600500Y-103753864D01*
X131620185Y-103686825D01*
X131672989Y-103641070D01*
X131742147Y-103631126D01*
X131805703Y-103660151D01*
X131812178Y-103666180D01*
X133066517Y-104920520D01*
X133066519Y-104920521D01*
X133066523Y-104920524D01*
X133203442Y-104999573D01*
X133203449Y-104999577D01*
X133356176Y-105040501D01*
X133356178Y-105040501D01*
X133521887Y-105040501D01*
X133521903Y-105040500D01*
X138270398Y-105040500D01*
X138337437Y-105060185D01*
X138380883Y-105108205D01*
X138387715Y-105121614D01*
X138508028Y-105287213D01*
X138652786Y-105431971D01*
X138807749Y-105544556D01*
X138818390Y-105552287D01*
X138934607Y-105611503D01*
X139000776Y-105645218D01*
X139000778Y-105645218D01*
X139000781Y-105645220D01*
X139105137Y-105679127D01*
X139195465Y-105708477D01*
X139296557Y-105724488D01*
X139397648Y-105740500D01*
X139397649Y-105740500D01*
X139602351Y-105740500D01*
X139602352Y-105740500D01*
X139804534Y-105708477D01*
X139999219Y-105645220D01*
X140181610Y-105552287D01*
X140274590Y-105484732D01*
X140347213Y-105431971D01*
X140347215Y-105431968D01*
X140347219Y-105431966D01*
X140491966Y-105287219D01*
X140491968Y-105287215D01*
X140491971Y-105287213D01*
X140544732Y-105214590D01*
X140612287Y-105121610D01*
X140705220Y-104939219D01*
X140768477Y-104744534D01*
X140800500Y-104542352D01*
X140800500Y-104337648D01*
X140768477Y-104135465D01*
X140705218Y-103940776D01*
X140656888Y-103845925D01*
X140612287Y-103758390D01*
X140560425Y-103687007D01*
X140491971Y-103592786D01*
X140347213Y-103448028D01*
X140181613Y-103327715D01*
X140181612Y-103327714D01*
X140181610Y-103327713D01*
X140124653Y-103298691D01*
X139999223Y-103234781D01*
X139804534Y-103171522D01*
X139629995Y-103143878D01*
X139602352Y-103139500D01*
X139397648Y-103139500D01*
X139373329Y-103143351D01*
X139195465Y-103171522D01*
X139000776Y-103234781D01*
X138818386Y-103327715D01*
X138652786Y-103448028D01*
X138508028Y-103592786D01*
X138387715Y-103758385D01*
X138380883Y-103771795D01*
X138332909Y-103822591D01*
X138270398Y-103839500D01*
X133735331Y-103839500D01*
X133668292Y-103819815D01*
X133647650Y-103803181D01*
X129199507Y-99355039D01*
X129166022Y-99293716D01*
X129171006Y-99224024D01*
X129199506Y-99179678D01*
X129231966Y-99147219D01*
X129231968Y-99147215D01*
X129231971Y-99147213D01*
X129352284Y-98981614D01*
X129352285Y-98981613D01*
X129352287Y-98981610D01*
X129359117Y-98968204D01*
X129407091Y-98917409D01*
X129469602Y-98900500D01*
X131399903Y-98900500D01*
X131466942Y-98920185D01*
X131487584Y-98936819D01*
X132705922Y-100155157D01*
X132739407Y-100216480D01*
X132736173Y-100281155D01*
X132731522Y-100295468D01*
X132699500Y-100497648D01*
X132699500Y-100702351D01*
X132731522Y-100904534D01*
X132794781Y-101099223D01*
X132817869Y-101144534D01*
X132880882Y-101268204D01*
X132887715Y-101281613D01*
X133008028Y-101447213D01*
X133152786Y-101591971D01*
X133295472Y-101695636D01*
X133318390Y-101712287D01*
X133402290Y-101755036D01*
X133500776Y-101805218D01*
X133500778Y-101805218D01*
X133500781Y-101805220D01*
X133562329Y-101825218D01*
X133695465Y-101868477D01*
X133796557Y-101884488D01*
X133897648Y-101900500D01*
X133897649Y-101900500D01*
X134102351Y-101900500D01*
X134102352Y-101900500D01*
X134304534Y-101868477D01*
X134499219Y-101805220D01*
X134681610Y-101712287D01*
X134798295Y-101627511D01*
X134847213Y-101591971D01*
X134847215Y-101591968D01*
X134847219Y-101591966D01*
X134991966Y-101447219D01*
X134991968Y-101447215D01*
X134991971Y-101447213D01*
X135112284Y-101281614D01*
X135112285Y-101281613D01*
X135112287Y-101281610D01*
X135119117Y-101268204D01*
X135167091Y-101217409D01*
X135229602Y-101200500D01*
X138260207Y-101200500D01*
X138327246Y-101220185D01*
X138370691Y-101268204D01*
X138387713Y-101301611D01*
X138508028Y-101467213D01*
X138652786Y-101611971D01*
X138790858Y-101712284D01*
X138818390Y-101732287D01*
X138934607Y-101791503D01*
X139000776Y-101825218D01*
X139000778Y-101825218D01*
X139000781Y-101825220D01*
X139088963Y-101853872D01*
X139195465Y-101888477D01*
X139271375Y-101900500D01*
X139397648Y-101920500D01*
X139397649Y-101920500D01*
X139602351Y-101920500D01*
X139602352Y-101920500D01*
X139804534Y-101888477D01*
X139999219Y-101825220D01*
X140181610Y-101732287D01*
X140274590Y-101664732D01*
X140347213Y-101611971D01*
X140347215Y-101611968D01*
X140347219Y-101611966D01*
X140491966Y-101467219D01*
X140491968Y-101467215D01*
X140491971Y-101467213D01*
X140612284Y-101301614D01*
X140612286Y-101301611D01*
X140612287Y-101301610D01*
X140619117Y-101288204D01*
X140667091Y-101237409D01*
X140729602Y-101220500D01*
X144280646Y-101220500D01*
X144347685Y-101240185D01*
X144391131Y-101288205D01*
X144397961Y-101301610D01*
X144466657Y-101436433D01*
X144605483Y-101627510D01*
X144772490Y-101794517D01*
X144963567Y-101933343D01*
X145000741Y-101952284D01*
X145174003Y-102040566D01*
X145174005Y-102040566D01*
X145174008Y-102040568D01*
X145238190Y-102061422D01*
X145398631Y-102113553D01*
X145631903Y-102150500D01*
X145631908Y-102150500D01*
X145868097Y-102150500D01*
X146101368Y-102113553D01*
X146112303Y-102110000D01*
X146325992Y-102040568D01*
X146536433Y-101933343D01*
X146727510Y-101794517D01*
X146894517Y-101627510D01*
X147033343Y-101436433D01*
X147093583Y-101318204D01*
X147141558Y-101267409D01*
X147204068Y-101250500D01*
X150795932Y-101250500D01*
X150862971Y-101270185D01*
X150906416Y-101318203D01*
X150966657Y-101436433D01*
X151105483Y-101627510D01*
X151272490Y-101794517D01*
X151463567Y-101933343D01*
X151500741Y-101952284D01*
X151674003Y-102040566D01*
X151674005Y-102040566D01*
X151674008Y-102040568D01*
X151738190Y-102061422D01*
X151898631Y-102113553D01*
X152131903Y-102150500D01*
X152131908Y-102150500D01*
X152368097Y-102150500D01*
X152601368Y-102113553D01*
X152612303Y-102110000D01*
X152825992Y-102040568D01*
X153036433Y-101933343D01*
X153227510Y-101794517D01*
X153394517Y-101627510D01*
X153533343Y-101436433D01*
X153640568Y-101225992D01*
X153713553Y-101001368D01*
X153722900Y-100942352D01*
X153750500Y-100768097D01*
X153750500Y-100531902D01*
X153713553Y-100298631D01*
X153640566Y-100074003D01*
X153568107Y-99931795D01*
X153533343Y-99863567D01*
X153394517Y-99672490D01*
X153227510Y-99505483D01*
X153036433Y-99366657D01*
X153022687Y-99359653D01*
X152825996Y-99259433D01*
X152601368Y-99186446D01*
X152368097Y-99149500D01*
X152368092Y-99149500D01*
X152131908Y-99149500D01*
X152131903Y-99149500D01*
X151898631Y-99186446D01*
X151674003Y-99259433D01*
X151463566Y-99366657D01*
X151397330Y-99414781D01*
X151272490Y-99505483D01*
X151272488Y-99505485D01*
X151272487Y-99505485D01*
X151105485Y-99672487D01*
X151105485Y-99672488D01*
X151105483Y-99672490D01*
X151065361Y-99727713D01*
X150966657Y-99863566D01*
X150941767Y-99912416D01*
X150907426Y-99979815D01*
X150906417Y-99981795D01*
X150858442Y-100032591D01*
X150795932Y-100049500D01*
X147204068Y-100049500D01*
X147137029Y-100029815D01*
X147093583Y-99981795D01*
X147033343Y-99863567D01*
X146894517Y-99672490D01*
X146727510Y-99505483D01*
X146536433Y-99366657D01*
X146522687Y-99359653D01*
X146325996Y-99259433D01*
X146101368Y-99186446D01*
X145868097Y-99149500D01*
X145868092Y-99149500D01*
X145631908Y-99149500D01*
X145631903Y-99149500D01*
X145398631Y-99186446D01*
X145174003Y-99259433D01*
X144963566Y-99366657D01*
X144897330Y-99414781D01*
X144772490Y-99505483D01*
X144772488Y-99505485D01*
X144772487Y-99505485D01*
X144605485Y-99672487D01*
X144605485Y-99672488D01*
X144605483Y-99672490D01*
X144565361Y-99727713D01*
X144466657Y-99863566D01*
X144444112Y-99907813D01*
X144421701Y-99951796D01*
X144373729Y-100002591D01*
X144311218Y-100019500D01*
X140729602Y-100019500D01*
X140662563Y-99999815D01*
X140619117Y-99951795D01*
X140613547Y-99940863D01*
X140612287Y-99938390D01*
X140612285Y-99938387D01*
X140612284Y-99938385D01*
X140491971Y-99772786D01*
X140347213Y-99628028D01*
X140181613Y-99507715D01*
X140181612Y-99507714D01*
X140181610Y-99507713D01*
X140124653Y-99478691D01*
X139999223Y-99414781D01*
X139804534Y-99351522D01*
X139629995Y-99323878D01*
X139602352Y-99319500D01*
X139397648Y-99319500D01*
X139373329Y-99323351D01*
X139195465Y-99351522D01*
X139000776Y-99414781D01*
X138818386Y-99507715D01*
X138652786Y-99628028D01*
X138508028Y-99772786D01*
X138387716Y-99938383D01*
X138386548Y-99940291D01*
X138385915Y-99940863D01*
X138384849Y-99942331D01*
X138384540Y-99942107D01*
X138334735Y-99987166D01*
X138280821Y-99999500D01*
X135229602Y-99999500D01*
X135162563Y-99979815D01*
X135119117Y-99931795D01*
X135112284Y-99918385D01*
X134991971Y-99752786D01*
X134847213Y-99608028D01*
X134681613Y-99487715D01*
X134681612Y-99487714D01*
X134681610Y-99487713D01*
X134624653Y-99458691D01*
X134499223Y-99394781D01*
X134304534Y-99331522D01*
X134129995Y-99303878D01*
X134102352Y-99299500D01*
X133897648Y-99299500D01*
X133859599Y-99305526D01*
X133695468Y-99331522D01*
X133686717Y-99334365D01*
X133681154Y-99336173D01*
X133611313Y-99338167D01*
X133555157Y-99305922D01*
X132187590Y-97938355D01*
X132187588Y-97938352D01*
X132068717Y-97819481D01*
X132068716Y-97819480D01*
X131981904Y-97769360D01*
X131981904Y-97769359D01*
X131981900Y-97769358D01*
X131931785Y-97740423D01*
X131779057Y-97699499D01*
X131620943Y-97699499D01*
X131613347Y-97699499D01*
X131613331Y-97699500D01*
X129469602Y-97699500D01*
X129402563Y-97679815D01*
X129359117Y-97631795D01*
X129352284Y-97618385D01*
X129231971Y-97452786D01*
X129087213Y-97308028D01*
X128921614Y-97187715D01*
X128915006Y-97184348D01*
X128828917Y-97140483D01*
X128778123Y-97092511D01*
X128761328Y-97024690D01*
X128783865Y-96958555D01*
X128828917Y-96919516D01*
X128921610Y-96872287D01*
X129014561Y-96804755D01*
X129087213Y-96751971D01*
X129087215Y-96751968D01*
X129087219Y-96751966D01*
X129231966Y-96607219D01*
X129231968Y-96607215D01*
X129231971Y-96607213D01*
X129266760Y-96559330D01*
X129318795Y-96487708D01*
X129352287Y-96441610D01*
X129445220Y-96259219D01*
X129508477Y-96064534D01*
X129540500Y-95862352D01*
X129540500Y-95657648D01*
X129515163Y-95497682D01*
X132700000Y-95497682D01*
X132700000Y-95702317D01*
X132732009Y-95904417D01*
X132795244Y-96099031D01*
X132888141Y-96281350D01*
X132888147Y-96281359D01*
X132920523Y-96325921D01*
X132920524Y-96325922D01*
X133600000Y-95646446D01*
X133600000Y-95652661D01*
X133627259Y-95754394D01*
X133679920Y-95845606D01*
X133754394Y-95920080D01*
X133845606Y-95972741D01*
X133947339Y-96000000D01*
X133953553Y-96000000D01*
X133274076Y-96679474D01*
X133318650Y-96711859D01*
X133500968Y-96804755D01*
X133695582Y-96867990D01*
X133897683Y-96900000D01*
X134102317Y-96900000D01*
X134304417Y-96867990D01*
X134499031Y-96804755D01*
X134681349Y-96711859D01*
X134725921Y-96679474D01*
X134046447Y-96000000D01*
X134052661Y-96000000D01*
X134154394Y-95972741D01*
X134245606Y-95920080D01*
X134320080Y-95845606D01*
X134372741Y-95754394D01*
X134400000Y-95652661D01*
X134400000Y-95646447D01*
X135079474Y-96325921D01*
X135111859Y-96281349D01*
X135204754Y-96099031D01*
X135226552Y-96031947D01*
X144250000Y-96031947D01*
X144250000Y-96268052D01*
X144286934Y-96501247D01*
X144359897Y-96725802D01*
X144467087Y-96936174D01*
X144527338Y-97019104D01*
X144527340Y-97019105D01*
X145226212Y-96320233D01*
X145237482Y-96362292D01*
X145309890Y-96487708D01*
X145412292Y-96590110D01*
X145537708Y-96662518D01*
X145579765Y-96673787D01*
X144880893Y-97372658D01*
X144963828Y-97432914D01*
X145174197Y-97540102D01*
X145398752Y-97613065D01*
X145398751Y-97613065D01*
X145631948Y-97650000D01*
X145868052Y-97650000D01*
X146101247Y-97613065D01*
X146325802Y-97540102D01*
X146536163Y-97432918D01*
X146536169Y-97432914D01*
X146619104Y-97372658D01*
X146619105Y-97372658D01*
X145920233Y-96673787D01*
X145962292Y-96662518D01*
X146087708Y-96590110D01*
X146190110Y-96487708D01*
X146262518Y-96362292D01*
X146273787Y-96320234D01*
X146972658Y-97019105D01*
X146972658Y-97019104D01*
X147032914Y-96936169D01*
X147032918Y-96936163D01*
X147140102Y-96725802D01*
X147213065Y-96501247D01*
X147250000Y-96268052D01*
X147250000Y-96031947D01*
X150750000Y-96031947D01*
X150750000Y-96268052D01*
X150786934Y-96501247D01*
X150859897Y-96725802D01*
X150967087Y-96936174D01*
X151027338Y-97019104D01*
X151027340Y-97019105D01*
X151726212Y-96320233D01*
X151737482Y-96362292D01*
X151809890Y-96487708D01*
X151912292Y-96590110D01*
X152037708Y-96662518D01*
X152079765Y-96673787D01*
X151380893Y-97372658D01*
X151463828Y-97432914D01*
X151674197Y-97540102D01*
X151898752Y-97613065D01*
X151898751Y-97613065D01*
X152131948Y-97650000D01*
X152368052Y-97650000D01*
X152601247Y-97613065D01*
X152825802Y-97540102D01*
X153036163Y-97432918D01*
X153036169Y-97432914D01*
X153119104Y-97372658D01*
X153119105Y-97372658D01*
X152420233Y-96673787D01*
X152462292Y-96662518D01*
X152587708Y-96590110D01*
X152690110Y-96487708D01*
X152762518Y-96362292D01*
X152773787Y-96320234D01*
X153472658Y-97019105D01*
X153472658Y-97019104D01*
X153532914Y-96936169D01*
X153532918Y-96936163D01*
X153640102Y-96725802D01*
X153713065Y-96501247D01*
X153750000Y-96268052D01*
X153750000Y-96031947D01*
X153713065Y-95798752D01*
X153640102Y-95574197D01*
X153532914Y-95363828D01*
X153472658Y-95280894D01*
X153472658Y-95280893D01*
X152773787Y-95979765D01*
X152762518Y-95937708D01*
X152690110Y-95812292D01*
X152587708Y-95709890D01*
X152462292Y-95637482D01*
X152420234Y-95626212D01*
X153119105Y-94927340D01*
X153119104Y-94927338D01*
X153036174Y-94867087D01*
X152825802Y-94759897D01*
X152601247Y-94686934D01*
X152601248Y-94686934D01*
X152368052Y-94650000D01*
X152131948Y-94650000D01*
X151898752Y-94686934D01*
X151674197Y-94759897D01*
X151463830Y-94867084D01*
X151380894Y-94927340D01*
X152079766Y-95626212D01*
X152037708Y-95637482D01*
X151912292Y-95709890D01*
X151809890Y-95812292D01*
X151737482Y-95937708D01*
X151726212Y-95979766D01*
X151027340Y-95280894D01*
X150967084Y-95363830D01*
X150859897Y-95574197D01*
X150786934Y-95798752D01*
X150750000Y-96031947D01*
X147250000Y-96031947D01*
X147213065Y-95798752D01*
X147140102Y-95574197D01*
X147032914Y-95363828D01*
X146972658Y-95280894D01*
X146972658Y-95280893D01*
X146273787Y-95979765D01*
X146262518Y-95937708D01*
X146190110Y-95812292D01*
X146087708Y-95709890D01*
X145962292Y-95637482D01*
X145920234Y-95626212D01*
X146619105Y-94927340D01*
X146619104Y-94927339D01*
X146536174Y-94867087D01*
X146325802Y-94759897D01*
X146101247Y-94686934D01*
X146101248Y-94686934D01*
X145868052Y-94650000D01*
X145631948Y-94650000D01*
X145398752Y-94686934D01*
X145174197Y-94759897D01*
X144963830Y-94867084D01*
X144880894Y-94927340D01*
X145579766Y-95626212D01*
X145537708Y-95637482D01*
X145412292Y-95709890D01*
X145309890Y-95812292D01*
X145237482Y-95937708D01*
X145226212Y-95979766D01*
X144527340Y-95280894D01*
X144467084Y-95363830D01*
X144359897Y-95574197D01*
X144286934Y-95798752D01*
X144250000Y-96031947D01*
X135226552Y-96031947D01*
X135240586Y-95988756D01*
X135267990Y-95904417D01*
X135300000Y-95702317D01*
X135300000Y-95497682D01*
X135267990Y-95295582D01*
X135204755Y-95100968D01*
X135169050Y-95030894D01*
X135169049Y-95030892D01*
X135111861Y-94918652D01*
X135079474Y-94874077D01*
X135079474Y-94874076D01*
X134400000Y-95553551D01*
X134400000Y-95547339D01*
X134372741Y-95445606D01*
X134320080Y-95354394D01*
X134245606Y-95279920D01*
X134154394Y-95227259D01*
X134052661Y-95200000D01*
X134046446Y-95200000D01*
X134725922Y-94520524D01*
X134725921Y-94520523D01*
X134681359Y-94488147D01*
X134681350Y-94488141D01*
X134499031Y-94395244D01*
X134304417Y-94332009D01*
X134102317Y-94300000D01*
X133897683Y-94300000D01*
X133695582Y-94332009D01*
X133500968Y-94395244D01*
X133318644Y-94488143D01*
X133274077Y-94520523D01*
X133274077Y-94520524D01*
X133953554Y-95200000D01*
X133947339Y-95200000D01*
X133845606Y-95227259D01*
X133754394Y-95279920D01*
X133679920Y-95354394D01*
X133627259Y-95445606D01*
X133600000Y-95547339D01*
X133600000Y-95553553D01*
X132920524Y-94874077D01*
X132920523Y-94874077D01*
X132888143Y-94918644D01*
X132795244Y-95100968D01*
X132732009Y-95295582D01*
X132700000Y-95497682D01*
X129515163Y-95497682D01*
X129508477Y-95455466D01*
X129501624Y-95434375D01*
X129500214Y-95427395D01*
X129502634Y-95399402D01*
X129501832Y-95371312D01*
X129505635Y-95364688D01*
X129506232Y-95357785D01*
X129519375Y-95340759D01*
X129534075Y-95315158D01*
X131580520Y-93268716D01*
X131659577Y-93131785D01*
X131700501Y-92979057D01*
X131700501Y-92897648D01*
X138199500Y-92897648D01*
X138199500Y-93102351D01*
X138231522Y-93304534D01*
X138294781Y-93499223D01*
X138387715Y-93681613D01*
X138508028Y-93847213D01*
X138652786Y-93991971D01*
X138807749Y-94104556D01*
X138818390Y-94112287D01*
X138934607Y-94171503D01*
X139000776Y-94205218D01*
X139000778Y-94205218D01*
X139000781Y-94205220D01*
X139105137Y-94239127D01*
X139195465Y-94268477D01*
X139296557Y-94284488D01*
X139397648Y-94300500D01*
X139397649Y-94300500D01*
X139602351Y-94300500D01*
X139602352Y-94300500D01*
X139804534Y-94268477D01*
X139999219Y-94205220D01*
X140181610Y-94112287D01*
X140274590Y-94044732D01*
X140347213Y-93991971D01*
X140347215Y-93991968D01*
X140347219Y-93991966D01*
X140491966Y-93847219D01*
X140491968Y-93847215D01*
X140491971Y-93847213D01*
X140544732Y-93774590D01*
X140612287Y-93681610D01*
X140705220Y-93499219D01*
X140768477Y-93304534D01*
X140800500Y-93102352D01*
X140800500Y-92897648D01*
X140787145Y-92813331D01*
X140768477Y-92695465D01*
X140717440Y-92538390D01*
X140705220Y-92500781D01*
X140705218Y-92500778D01*
X140705218Y-92500776D01*
X140640003Y-92372786D01*
X140612287Y-92318390D01*
X140604556Y-92307749D01*
X140491971Y-92152786D01*
X140347213Y-92008028D01*
X140181613Y-91887715D01*
X140181612Y-91887714D01*
X140181610Y-91887713D01*
X140124653Y-91858691D01*
X139999223Y-91794781D01*
X139804534Y-91731522D01*
X139629995Y-91703878D01*
X139602352Y-91699500D01*
X139397648Y-91699500D01*
X139373329Y-91703351D01*
X139195465Y-91731522D01*
X139000776Y-91794781D01*
X138818386Y-91887715D01*
X138652786Y-92008028D01*
X138508028Y-92152786D01*
X138387715Y-92318386D01*
X138294781Y-92500776D01*
X138231522Y-92695465D01*
X138199500Y-92897648D01*
X131700501Y-92897648D01*
X131700501Y-92820942D01*
X131700500Y-92820938D01*
X131700500Y-90324500D01*
X131720185Y-90257461D01*
X131772989Y-90211706D01*
X131824500Y-90200500D01*
X133270398Y-90200500D01*
X133337437Y-90220185D01*
X133380883Y-90268205D01*
X133387715Y-90281614D01*
X133508028Y-90447213D01*
X133652786Y-90591971D01*
X133807749Y-90704556D01*
X133818390Y-90712287D01*
X133934607Y-90771503D01*
X134000776Y-90805218D01*
X134000778Y-90805218D01*
X134000781Y-90805220D01*
X134062329Y-90825218D01*
X134195465Y-90868477D01*
X134289318Y-90883342D01*
X134397648Y-90900500D01*
X134397649Y-90900500D01*
X134602351Y-90900500D01*
X134602352Y-90900500D01*
X134804534Y-90868477D01*
X134999219Y-90805220D01*
X135181610Y-90712287D01*
X135274590Y-90644732D01*
X135347213Y-90591971D01*
X135347215Y-90591968D01*
X135347219Y-90591966D01*
X135491966Y-90447219D01*
X135491968Y-90447215D01*
X135491971Y-90447213D01*
X135612284Y-90281614D01*
X135612283Y-90281614D01*
X135612287Y-90281610D01*
X135619117Y-90268204D01*
X135667091Y-90217409D01*
X135729602Y-90200500D01*
X138260207Y-90200500D01*
X138327246Y-90220185D01*
X138370691Y-90268204D01*
X138387713Y-90301611D01*
X138508028Y-90467213D01*
X138652786Y-90611971D01*
X138790858Y-90712284D01*
X138818390Y-90732287D01*
X138916646Y-90782351D01*
X139000776Y-90825218D01*
X139000778Y-90825218D01*
X139000781Y-90825220D01*
X139105137Y-90859127D01*
X139195465Y-90888477D01*
X139271375Y-90900500D01*
X139397648Y-90920500D01*
X139397649Y-90920500D01*
X139602351Y-90920500D01*
X139602352Y-90920500D01*
X139804534Y-90888477D01*
X139999219Y-90825220D01*
X140181610Y-90732287D01*
X140274590Y-90664732D01*
X140347213Y-90611971D01*
X140347215Y-90611968D01*
X140347219Y-90611966D01*
X140491966Y-90467219D01*
X140491968Y-90467215D01*
X140491971Y-90467213D01*
X140612284Y-90301614D01*
X140612286Y-90301611D01*
X140612287Y-90301610D01*
X140619117Y-90288204D01*
X140667091Y-90237409D01*
X140729602Y-90220500D01*
X144056122Y-90220500D01*
X144123161Y-90240185D01*
X144166607Y-90288205D01*
X144211069Y-90375466D01*
X144216657Y-90386433D01*
X144355483Y-90577510D01*
X144522490Y-90744517D01*
X144713567Y-90883343D01*
X144747240Y-90900500D01*
X144924003Y-90990566D01*
X144924005Y-90990566D01*
X144924008Y-90990568D01*
X145044412Y-91029689D01*
X145148631Y-91063553D01*
X145381903Y-91100500D01*
X145381908Y-91100500D01*
X145618097Y-91100500D01*
X145851368Y-91063553D01*
X146075992Y-90990568D01*
X146286433Y-90883343D01*
X146477510Y-90744517D01*
X146644517Y-90577510D01*
X146783343Y-90386433D01*
X146843583Y-90268204D01*
X146891558Y-90217409D01*
X146954068Y-90200500D01*
X150545932Y-90200500D01*
X150612971Y-90220185D01*
X150656416Y-90268203D01*
X150716657Y-90386433D01*
X150855483Y-90577510D01*
X151022490Y-90744517D01*
X151213567Y-90883343D01*
X151247240Y-90900500D01*
X151424003Y-90990566D01*
X151424005Y-90990566D01*
X151424008Y-90990568D01*
X151544412Y-91029689D01*
X151648631Y-91063553D01*
X151881903Y-91100500D01*
X151881908Y-91100500D01*
X152118097Y-91100500D01*
X152351368Y-91063553D01*
X152575992Y-90990568D01*
X152786433Y-90883343D01*
X152977510Y-90744517D01*
X153144517Y-90577510D01*
X153283343Y-90386433D01*
X153390568Y-90175992D01*
X153463553Y-89951368D01*
X153500500Y-89718097D01*
X153500500Y-89481902D01*
X153463553Y-89248631D01*
X153421587Y-89119475D01*
X153390568Y-89024008D01*
X153390566Y-89024005D01*
X153390566Y-89024003D01*
X153334002Y-88912991D01*
X153283343Y-88813567D01*
X153144517Y-88622490D01*
X152977510Y-88455483D01*
X152786433Y-88316657D01*
X152575996Y-88209433D01*
X152351368Y-88136446D01*
X152118097Y-88099500D01*
X152118092Y-88099500D01*
X151881908Y-88099500D01*
X151881903Y-88099500D01*
X151648631Y-88136446D01*
X151424003Y-88209433D01*
X151213566Y-88316657D01*
X151165578Y-88351523D01*
X151022490Y-88455483D01*
X151022488Y-88455485D01*
X151022487Y-88455485D01*
X150855485Y-88622487D01*
X150855485Y-88622488D01*
X150855483Y-88622490D01*
X150843329Y-88639219D01*
X150716657Y-88813566D01*
X150712557Y-88821613D01*
X150663250Y-88918385D01*
X150656417Y-88931795D01*
X150608442Y-88982591D01*
X150545932Y-88999500D01*
X146954068Y-88999500D01*
X146887029Y-88979815D01*
X146843583Y-88931795D01*
X146836753Y-88918390D01*
X146783343Y-88813567D01*
X146644517Y-88622490D01*
X146477510Y-88455483D01*
X146286433Y-88316657D01*
X146075996Y-88209433D01*
X145851368Y-88136446D01*
X145618097Y-88099500D01*
X145618092Y-88099500D01*
X145381908Y-88099500D01*
X145381903Y-88099500D01*
X145148631Y-88136446D01*
X144924003Y-88209433D01*
X144713566Y-88316657D01*
X144665578Y-88351523D01*
X144522490Y-88455483D01*
X144522488Y-88455485D01*
X144522487Y-88455485D01*
X144355485Y-88622487D01*
X144355485Y-88622488D01*
X144355483Y-88622490D01*
X144343329Y-88639219D01*
X144216657Y-88813566D01*
X144146226Y-88951795D01*
X144098251Y-89002591D01*
X144035741Y-89019500D01*
X140729602Y-89019500D01*
X140662563Y-88999815D01*
X140619117Y-88951795D01*
X140613547Y-88940863D01*
X140612287Y-88938390D01*
X140612285Y-88938387D01*
X140612284Y-88938385D01*
X140491971Y-88772786D01*
X140347213Y-88628028D01*
X140181613Y-88507715D01*
X140181612Y-88507714D01*
X140181610Y-88507713D01*
X140124653Y-88478691D01*
X139999223Y-88414781D01*
X139804534Y-88351522D01*
X139629995Y-88323878D01*
X139602352Y-88319500D01*
X139397648Y-88319500D01*
X139373329Y-88323351D01*
X139195465Y-88351522D01*
X139000776Y-88414781D01*
X138818386Y-88507715D01*
X138652786Y-88628028D01*
X138508028Y-88772786D01*
X138387716Y-88938383D01*
X138386548Y-88940291D01*
X138385915Y-88940863D01*
X138384849Y-88942331D01*
X138384540Y-88942107D01*
X138334735Y-88987166D01*
X138280821Y-88999500D01*
X135729602Y-88999500D01*
X135662563Y-88979815D01*
X135619117Y-88931795D01*
X135612284Y-88918385D01*
X135491971Y-88752786D01*
X135347213Y-88608028D01*
X135181613Y-88487715D01*
X135181612Y-88487714D01*
X135181610Y-88487713D01*
X135096867Y-88444534D01*
X134999223Y-88394781D01*
X134804534Y-88331522D01*
X134629995Y-88303878D01*
X134602352Y-88299500D01*
X134397648Y-88299500D01*
X134373329Y-88303351D01*
X134195465Y-88331522D01*
X134000776Y-88394781D01*
X133818386Y-88487715D01*
X133652786Y-88608028D01*
X133508028Y-88752786D01*
X133387715Y-88918385D01*
X133380883Y-88931795D01*
X133332909Y-88982591D01*
X133270398Y-88999500D01*
X131020943Y-88999500D01*
X130868216Y-89040423D01*
X130868209Y-89040426D01*
X130731290Y-89119475D01*
X130731282Y-89119481D01*
X130619481Y-89231282D01*
X130619475Y-89231290D01*
X130540426Y-89368209D01*
X130540423Y-89368216D01*
X130499500Y-89520943D01*
X130499500Y-92599901D01*
X130479815Y-92666940D01*
X130463181Y-92687582D01*
X129752181Y-93398582D01*
X129690858Y-93432067D01*
X129621166Y-93427083D01*
X129565233Y-93385211D01*
X129540816Y-93319747D01*
X129540500Y-93310901D01*
X129540500Y-93117648D01*
X129508477Y-92915465D01*
X129451296Y-92739481D01*
X129445220Y-92720781D01*
X129445218Y-92720778D01*
X129445218Y-92720776D01*
X129409799Y-92651264D01*
X129352287Y-92538390D01*
X129324959Y-92500776D01*
X129231971Y-92372786D01*
X129087213Y-92228028D01*
X128921614Y-92107715D01*
X128915006Y-92104348D01*
X128828917Y-92060483D01*
X128778123Y-92012511D01*
X128761328Y-91944690D01*
X128783865Y-91878555D01*
X128828917Y-91839516D01*
X128921610Y-91792287D01*
X128942770Y-91776913D01*
X129087213Y-91671971D01*
X129087215Y-91671968D01*
X129087219Y-91671966D01*
X129231966Y-91527219D01*
X129231968Y-91527215D01*
X129231971Y-91527213D01*
X129284732Y-91454590D01*
X129352287Y-91361610D01*
X129445220Y-91179219D01*
X129508477Y-90984534D01*
X129540500Y-90782352D01*
X129540500Y-90577648D01*
X129540478Y-90577510D01*
X129508477Y-90375465D01*
X129470135Y-90257461D01*
X129445220Y-90180781D01*
X129445218Y-90180778D01*
X129445218Y-90180776D01*
X129411503Y-90114607D01*
X129352287Y-89998390D01*
X129318124Y-89951368D01*
X129231971Y-89832786D01*
X129087213Y-89688028D01*
X128921614Y-89567715D01*
X128915006Y-89564348D01*
X128828917Y-89520483D01*
X128778123Y-89472511D01*
X128761328Y-89404690D01*
X128783865Y-89338555D01*
X128828917Y-89299516D01*
X128921610Y-89252287D01*
X128950521Y-89231282D01*
X129087213Y-89131971D01*
X129087215Y-89131968D01*
X129087219Y-89131966D01*
X129231966Y-88987219D01*
X129231968Y-88987215D01*
X129231971Y-88987213D01*
X129284732Y-88914590D01*
X129352287Y-88821610D01*
X129445220Y-88639219D01*
X129508477Y-88444534D01*
X129540500Y-88242352D01*
X129540500Y-88037648D01*
X129508477Y-87835466D01*
X129445220Y-87640781D01*
X129445218Y-87640778D01*
X129445218Y-87640776D01*
X129411503Y-87574607D01*
X129352287Y-87458390D01*
X129344556Y-87447749D01*
X129231971Y-87292786D01*
X129087213Y-87148028D01*
X128921614Y-87027715D01*
X128915006Y-87024348D01*
X128828917Y-86980483D01*
X128778123Y-86932511D01*
X128761328Y-86864690D01*
X128783865Y-86798555D01*
X128828917Y-86759516D01*
X128921610Y-86712287D01*
X128942770Y-86696913D01*
X129087213Y-86591971D01*
X129087215Y-86591968D01*
X129087219Y-86591966D01*
X129231966Y-86447219D01*
X129231968Y-86447215D01*
X129231971Y-86447213D01*
X129352286Y-86281611D01*
X129384135Y-86219105D01*
X129384135Y-86219104D01*
X129445218Y-86099223D01*
X129445218Y-86099222D01*
X129445220Y-86099219D01*
X129508477Y-85904534D01*
X129540500Y-85702352D01*
X129540500Y-85497648D01*
X129508477Y-85295466D01*
X129503893Y-85281359D01*
X129445218Y-85100776D01*
X129370203Y-84953553D01*
X129352287Y-84918390D01*
X129342135Y-84904417D01*
X129231971Y-84752786D01*
X129087219Y-84608034D01*
X129066712Y-84593135D01*
X129066710Y-84593132D01*
X128935333Y-84497682D01*
X133200000Y-84497682D01*
X133200000Y-84702317D01*
X133232009Y-84904417D01*
X133295244Y-85099031D01*
X133388141Y-85281350D01*
X133388147Y-85281359D01*
X133420523Y-85325921D01*
X133420524Y-85325922D01*
X134100000Y-84646446D01*
X134100000Y-84652661D01*
X134127259Y-84754394D01*
X134179920Y-84845606D01*
X134254394Y-84920080D01*
X134345606Y-84972741D01*
X134447339Y-85000000D01*
X134453553Y-85000000D01*
X133774076Y-85679474D01*
X133818650Y-85711859D01*
X134000968Y-85804755D01*
X134195582Y-85867990D01*
X134397683Y-85900000D01*
X134602317Y-85900000D01*
X134804417Y-85867990D01*
X134999031Y-85804755D01*
X135181349Y-85711859D01*
X135225921Y-85679474D01*
X134546447Y-85000000D01*
X134552661Y-85000000D01*
X134654394Y-84972741D01*
X134745606Y-84920080D01*
X134820080Y-84845606D01*
X134872741Y-84754394D01*
X134900000Y-84652661D01*
X134900000Y-84646447D01*
X135579474Y-85325921D01*
X135611859Y-85281349D01*
X135704755Y-85099031D01*
X135742799Y-84981947D01*
X144000000Y-84981947D01*
X144000000Y-85218052D01*
X144036934Y-85451247D01*
X144109897Y-85675802D01*
X144217087Y-85886174D01*
X144277338Y-85969104D01*
X144277340Y-85969105D01*
X144976212Y-85270233D01*
X144987482Y-85312292D01*
X145059890Y-85437708D01*
X145162292Y-85540110D01*
X145287708Y-85612518D01*
X145329765Y-85623787D01*
X144630893Y-86322658D01*
X144713828Y-86382914D01*
X144924197Y-86490102D01*
X145148752Y-86563065D01*
X145148751Y-86563065D01*
X145381948Y-86600000D01*
X145618052Y-86600000D01*
X145851247Y-86563065D01*
X146075802Y-86490102D01*
X146286163Y-86382918D01*
X146286169Y-86382914D01*
X146369104Y-86322658D01*
X146369105Y-86322658D01*
X145670233Y-85623787D01*
X145712292Y-85612518D01*
X145837708Y-85540110D01*
X145940110Y-85437708D01*
X146012518Y-85312292D01*
X146023787Y-85270234D01*
X146722658Y-85969105D01*
X146722658Y-85969104D01*
X146782914Y-85886169D01*
X146782918Y-85886163D01*
X146890102Y-85675802D01*
X146963065Y-85451247D01*
X147000000Y-85218052D01*
X147000000Y-84981947D01*
X150500000Y-84981947D01*
X150500000Y-85218052D01*
X150536934Y-85451247D01*
X150609897Y-85675802D01*
X150717087Y-85886174D01*
X150777338Y-85969104D01*
X150777340Y-85969105D01*
X151476212Y-85270233D01*
X151487482Y-85312292D01*
X151559890Y-85437708D01*
X151662292Y-85540110D01*
X151787708Y-85612518D01*
X151829765Y-85623787D01*
X151130893Y-86322658D01*
X151213828Y-86382914D01*
X151424197Y-86490102D01*
X151648752Y-86563065D01*
X151648751Y-86563065D01*
X151881948Y-86600000D01*
X152118052Y-86600000D01*
X152351247Y-86563065D01*
X152575802Y-86490102D01*
X152786163Y-86382918D01*
X152786169Y-86382914D01*
X152869104Y-86322658D01*
X152869105Y-86322658D01*
X152170233Y-85623787D01*
X152212292Y-85612518D01*
X152337708Y-85540110D01*
X152440110Y-85437708D01*
X152512518Y-85312292D01*
X152523787Y-85270234D01*
X153222658Y-85969105D01*
X153222658Y-85969104D01*
X153282914Y-85886169D01*
X153282918Y-85886163D01*
X153390102Y-85675802D01*
X153463065Y-85451247D01*
X153500000Y-85218052D01*
X153500000Y-84981947D01*
X153463065Y-84748752D01*
X153390102Y-84524197D01*
X153282914Y-84313828D01*
X153222658Y-84230894D01*
X153222658Y-84230893D01*
X152523787Y-84929765D01*
X152512518Y-84887708D01*
X152440110Y-84762292D01*
X152337708Y-84659890D01*
X152212292Y-84587482D01*
X152170234Y-84576212D01*
X152869105Y-83877340D01*
X152869104Y-83877338D01*
X152786174Y-83817087D01*
X152575802Y-83709897D01*
X152351247Y-83636934D01*
X152351248Y-83636934D01*
X152118052Y-83600000D01*
X151881948Y-83600000D01*
X151648752Y-83636934D01*
X151424197Y-83709897D01*
X151213830Y-83817084D01*
X151130894Y-83877340D01*
X151829766Y-84576212D01*
X151787708Y-84587482D01*
X151662292Y-84659890D01*
X151559890Y-84762292D01*
X151487482Y-84887708D01*
X151476212Y-84929766D01*
X150777340Y-84230894D01*
X150717084Y-84313830D01*
X150609897Y-84524197D01*
X150536934Y-84748752D01*
X150500000Y-84981947D01*
X147000000Y-84981947D01*
X146963065Y-84748752D01*
X146890102Y-84524197D01*
X146782914Y-84313828D01*
X146722658Y-84230894D01*
X146722658Y-84230893D01*
X146023787Y-84929765D01*
X146012518Y-84887708D01*
X145940110Y-84762292D01*
X145837708Y-84659890D01*
X145712292Y-84587482D01*
X145670234Y-84576212D01*
X146369105Y-83877340D01*
X146369104Y-83877339D01*
X146286174Y-83817087D01*
X146075802Y-83709897D01*
X145851247Y-83636934D01*
X145851248Y-83636934D01*
X145618052Y-83600000D01*
X145381948Y-83600000D01*
X145148752Y-83636934D01*
X144924197Y-83709897D01*
X144713830Y-83817084D01*
X144630894Y-83877340D01*
X145329766Y-84576212D01*
X145287708Y-84587482D01*
X145162292Y-84659890D01*
X145059890Y-84762292D01*
X144987482Y-84887708D01*
X144976212Y-84929766D01*
X144277340Y-84230894D01*
X144217084Y-84313830D01*
X144109897Y-84524197D01*
X144036934Y-84748752D01*
X144000000Y-84981947D01*
X135742799Y-84981947D01*
X135756833Y-84938756D01*
X135756833Y-84938755D01*
X135767989Y-84904421D01*
X135767989Y-84904418D01*
X135800000Y-84702317D01*
X135800000Y-84497682D01*
X135767990Y-84295582D01*
X135704755Y-84100968D01*
X135643574Y-83980894D01*
X135611859Y-83918650D01*
X135579474Y-83874077D01*
X135579474Y-83874076D01*
X134900000Y-84553551D01*
X134900000Y-84547339D01*
X134872741Y-84445606D01*
X134820080Y-84354394D01*
X134745606Y-84279920D01*
X134654394Y-84227259D01*
X134552661Y-84200000D01*
X134546446Y-84200000D01*
X135225922Y-83520524D01*
X135225921Y-83520523D01*
X135181359Y-83488147D01*
X135181350Y-83488141D01*
X134999031Y-83395244D01*
X134804417Y-83332009D01*
X134602317Y-83300000D01*
X134397683Y-83300000D01*
X134195582Y-83332009D01*
X134000968Y-83395244D01*
X133818644Y-83488143D01*
X133774077Y-83520523D01*
X133774077Y-83520524D01*
X134453554Y-84200000D01*
X134447339Y-84200000D01*
X134345606Y-84227259D01*
X134254394Y-84279920D01*
X134179920Y-84354394D01*
X134127259Y-84445606D01*
X134100000Y-84547339D01*
X134100000Y-84553553D01*
X133420524Y-83874077D01*
X133420523Y-83874077D01*
X133388143Y-83918644D01*
X133295244Y-84100968D01*
X133232009Y-84295582D01*
X133200000Y-84497682D01*
X128935333Y-84497682D01*
X128921614Y-84487715D01*
X128838970Y-84445606D01*
X128828917Y-84440483D01*
X128778123Y-84392511D01*
X128761328Y-84324690D01*
X128783865Y-84258555D01*
X128828917Y-84219516D01*
X128921610Y-84172287D01*
X129019773Y-84100968D01*
X129087213Y-84051971D01*
X129087215Y-84051968D01*
X129087219Y-84051966D01*
X129231966Y-83907219D01*
X129231968Y-83907215D01*
X129231971Y-83907213D01*
X129297452Y-83817084D01*
X129352287Y-83741610D01*
X129445220Y-83559219D01*
X129454889Y-83529463D01*
X129508476Y-83364538D01*
X129508476Y-83364537D01*
X129508477Y-83364534D01*
X129540500Y-83162352D01*
X129540500Y-82957648D01*
X129508477Y-82755465D01*
X129445218Y-82560776D01*
X129411503Y-82494607D01*
X129352287Y-82378390D01*
X129298628Y-82304534D01*
X129231971Y-82212786D01*
X129087219Y-82068034D01*
X128988537Y-81996338D01*
X128921610Y-81947713D01*
X128825158Y-81898568D01*
X128823621Y-81897648D01*
X138199500Y-81897648D01*
X138199500Y-82102351D01*
X138231522Y-82304534D01*
X138294781Y-82499223D01*
X138387715Y-82681613D01*
X138508028Y-82847213D01*
X138652786Y-82991971D01*
X138807749Y-83104556D01*
X138818390Y-83112287D01*
X138916646Y-83162351D01*
X139000776Y-83205218D01*
X139000778Y-83205218D01*
X139000781Y-83205220D01*
X139105137Y-83239127D01*
X139195465Y-83268477D01*
X139296557Y-83284488D01*
X139397648Y-83300500D01*
X139397649Y-83300500D01*
X139602351Y-83300500D01*
X139602352Y-83300500D01*
X139804534Y-83268477D01*
X139999219Y-83205220D01*
X140181610Y-83112287D01*
X140274590Y-83044732D01*
X140347213Y-82991971D01*
X140347215Y-82991968D01*
X140347219Y-82991966D01*
X140491966Y-82847219D01*
X140491968Y-82847215D01*
X140491971Y-82847213D01*
X140558628Y-82755466D01*
X140612287Y-82681610D01*
X140705220Y-82499219D01*
X140768477Y-82304534D01*
X140800500Y-82102352D01*
X140800500Y-81897648D01*
X140768477Y-81695466D01*
X140705220Y-81500781D01*
X140705218Y-81500778D01*
X140705218Y-81500776D01*
X140671503Y-81434607D01*
X140612287Y-81318390D01*
X140604556Y-81307749D01*
X140491971Y-81152786D01*
X140347213Y-81008028D01*
X140181613Y-80887715D01*
X140181612Y-80887714D01*
X140181610Y-80887713D01*
X140124653Y-80858691D01*
X139999223Y-80794781D01*
X139804534Y-80731522D01*
X139629995Y-80703878D01*
X139602352Y-80699500D01*
X139397648Y-80699500D01*
X139373329Y-80703351D01*
X139195465Y-80731522D01*
X139000776Y-80794781D01*
X138818386Y-80887715D01*
X138652786Y-81008028D01*
X138508028Y-81152786D01*
X138387715Y-81318386D01*
X138294781Y-81500776D01*
X138231522Y-81695465D01*
X138199500Y-81897648D01*
X128823621Y-81897648D01*
X128821540Y-81896403D01*
X128800582Y-81873723D01*
X128778123Y-81852511D01*
X128777076Y-81848284D01*
X128774122Y-81845087D01*
X128768752Y-81814670D01*
X128761328Y-81784690D01*
X128762732Y-81780569D01*
X128761975Y-81776281D01*
X128773903Y-81747787D01*
X128783865Y-81718555D01*
X128787436Y-81715460D01*
X128788956Y-81711831D01*
X128801965Y-81702871D01*
X128828917Y-81679516D01*
X128921610Y-81632287D01*
X128942770Y-81616913D01*
X129087213Y-81511971D01*
X129087215Y-81511968D01*
X129087219Y-81511966D01*
X129231966Y-81367219D01*
X129231968Y-81367215D01*
X129231971Y-81367213D01*
X129284732Y-81294590D01*
X129352287Y-81201610D01*
X129445220Y-81019219D01*
X129508477Y-80824534D01*
X129540500Y-80622352D01*
X129540500Y-80417648D01*
X129508477Y-80215466D01*
X129445220Y-80020781D01*
X129445218Y-80020778D01*
X129445218Y-80020776D01*
X129411503Y-79954607D01*
X129352287Y-79838390D01*
X129344556Y-79827749D01*
X129231971Y-79672786D01*
X129087213Y-79528028D01*
X128921614Y-79407715D01*
X128915006Y-79404348D01*
X128828917Y-79360483D01*
X128778123Y-79312511D01*
X128761328Y-79244690D01*
X128783865Y-79178555D01*
X128828917Y-79139516D01*
X128921610Y-79092287D01*
X128942770Y-79076913D01*
X129087213Y-78971971D01*
X129087215Y-78971968D01*
X129087219Y-78971966D01*
X129231966Y-78827219D01*
X129231968Y-78827215D01*
X129231971Y-78827213D01*
X129284732Y-78754590D01*
X129352287Y-78661610D01*
X129445220Y-78479219D01*
X129508477Y-78284534D01*
X129540500Y-78082352D01*
X129540500Y-77877648D01*
X129508477Y-77675466D01*
X129445220Y-77480781D01*
X129445218Y-77480778D01*
X129445218Y-77480776D01*
X129411503Y-77414607D01*
X129352287Y-77298390D01*
X129344556Y-77287749D01*
X129231971Y-77132786D01*
X129087213Y-76988028D01*
X128921614Y-76867715D01*
X128915006Y-76864348D01*
X128828917Y-76820483D01*
X128778123Y-76772511D01*
X128761328Y-76704690D01*
X128783865Y-76638555D01*
X128828917Y-76599516D01*
X128921610Y-76552287D01*
X128942770Y-76536913D01*
X129087213Y-76431971D01*
X129087215Y-76431968D01*
X129087219Y-76431966D01*
X129231966Y-76287219D01*
X129231968Y-76287215D01*
X129231971Y-76287213D01*
X129352284Y-76121614D01*
X129352285Y-76121613D01*
X129352287Y-76121610D01*
X129359117Y-76108204D01*
X129407091Y-76057409D01*
X129469602Y-76040500D01*
X131849953Y-76040500D01*
X131916992Y-76060185D01*
X131937634Y-76076819D01*
X132052786Y-76191971D01*
X132186588Y-76289182D01*
X132218390Y-76312287D01*
X132316016Y-76362030D01*
X132400776Y-76405218D01*
X132400778Y-76405218D01*
X132400781Y-76405220D01*
X132483097Y-76431966D01*
X132595465Y-76468477D01*
X132696557Y-76484488D01*
X132797648Y-76500500D01*
X132797649Y-76500500D01*
X133002351Y-76500500D01*
X133002352Y-76500500D01*
X133204534Y-76468477D01*
X133399219Y-76405220D01*
X133581610Y-76312287D01*
X133719152Y-76212358D01*
X133747213Y-76191971D01*
X133747215Y-76191968D01*
X133747219Y-76191966D01*
X133891966Y-76047219D01*
X133891968Y-76047215D01*
X133891971Y-76047213D01*
X133970432Y-75939219D01*
X134012287Y-75881610D01*
X134105220Y-75699219D01*
X134168477Y-75504534D01*
X134200500Y-75302352D01*
X134200500Y-75097648D01*
X139219500Y-75097648D01*
X139219500Y-75302351D01*
X139251522Y-75504534D01*
X139314781Y-75699223D01*
X139407715Y-75881613D01*
X139528028Y-76047213D01*
X139672786Y-76191971D01*
X139806588Y-76289182D01*
X139838390Y-76312287D01*
X139936016Y-76362030D01*
X140020776Y-76405218D01*
X140020778Y-76405218D01*
X140020781Y-76405220D01*
X140103097Y-76431966D01*
X140215465Y-76468477D01*
X140316557Y-76484488D01*
X140417648Y-76500500D01*
X140417649Y-76500500D01*
X140622351Y-76500500D01*
X140622352Y-76500500D01*
X140824534Y-76468477D01*
X141019219Y-76405220D01*
X141201610Y-76312287D01*
X141339152Y-76212358D01*
X141367213Y-76191971D01*
X141367215Y-76191968D01*
X141367219Y-76191966D01*
X141511966Y-76047219D01*
X141511968Y-76047215D01*
X141511971Y-76047213D01*
X141632284Y-75881614D01*
X141632285Y-75881613D01*
X141632287Y-75881610D01*
X141639117Y-75868204D01*
X141687091Y-75817409D01*
X141749602Y-75800500D01*
X147907211Y-75800500D01*
X147974250Y-75820185D01*
X148017696Y-75868205D01*
X148102187Y-76034025D01*
X148231752Y-76212358D01*
X148231756Y-76212363D01*
X148387636Y-76368243D01*
X148387641Y-76368247D01*
X148525597Y-76468477D01*
X148565978Y-76497815D01*
X148682501Y-76557187D01*
X148762393Y-76597895D01*
X148762396Y-76597896D01*
X148867221Y-76631955D01*
X148972049Y-76666015D01*
X149189778Y-76700500D01*
X149189779Y-76700500D01*
X149410221Y-76700500D01*
X149410222Y-76700500D01*
X149627951Y-76666015D01*
X149837606Y-76597895D01*
X150034022Y-76497815D01*
X150212365Y-76368242D01*
X150262924Y-76317682D01*
X150324245Y-76284198D01*
X150393936Y-76289182D01*
X150449870Y-76331053D01*
X150466786Y-76362030D01*
X150496646Y-76442087D01*
X150496649Y-76442093D01*
X150582809Y-76557187D01*
X150582812Y-76557190D01*
X150697906Y-76643350D01*
X150697913Y-76643354D01*
X150832620Y-76693596D01*
X150832627Y-76693598D01*
X150892155Y-76699999D01*
X150892172Y-76700000D01*
X151590000Y-76700000D01*
X151590000Y-75675277D01*
X151666306Y-75719333D01*
X151780756Y-75750000D01*
X151899244Y-75750000D01*
X152013694Y-75719333D01*
X152090000Y-75675277D01*
X152090000Y-76700000D01*
X152787828Y-76700000D01*
X152787844Y-76699999D01*
X152847372Y-76693598D01*
X152847379Y-76693596D01*
X152982086Y-76643354D01*
X152982093Y-76643350D01*
X153097187Y-76557190D01*
X153097190Y-76557187D01*
X153183350Y-76442093D01*
X153183354Y-76442086D01*
X153233596Y-76307379D01*
X153233598Y-76307372D01*
X153239999Y-76247844D01*
X153240000Y-76247827D01*
X153240000Y-75550000D01*
X152215278Y-75550000D01*
X152259333Y-75473694D01*
X152290000Y-75359244D01*
X152290000Y-75240756D01*
X152259333Y-75126306D01*
X152215278Y-75050000D01*
X153240000Y-75050000D01*
X153240000Y-74352172D01*
X153239999Y-74352155D01*
X153233598Y-74292627D01*
X153233596Y-74292620D01*
X153183354Y-74157913D01*
X153183350Y-74157906D01*
X153097190Y-74042812D01*
X153097187Y-74042809D01*
X152982093Y-73956649D01*
X152982086Y-73956645D01*
X152847379Y-73906403D01*
X152847372Y-73906401D01*
X152787844Y-73900000D01*
X152090000Y-73900000D01*
X152090000Y-74924722D01*
X152013694Y-74880667D01*
X151899244Y-74850000D01*
X151780756Y-74850000D01*
X151666306Y-74880667D01*
X151590000Y-74924722D01*
X151590000Y-73900000D01*
X150892155Y-73900000D01*
X150832627Y-73906401D01*
X150832620Y-73906403D01*
X150697913Y-73956645D01*
X150697906Y-73956649D01*
X150582812Y-74042809D01*
X150582809Y-74042812D01*
X150496649Y-74157906D01*
X150496643Y-74157918D01*
X150466785Y-74237969D01*
X150424914Y-74293903D01*
X150359449Y-74318319D01*
X150291176Y-74303467D01*
X150262923Y-74282316D01*
X150212363Y-74231756D01*
X150212358Y-74231752D01*
X150034025Y-74102187D01*
X150034024Y-74102186D01*
X150034022Y-74102185D01*
X149971096Y-74070122D01*
X149837606Y-74002104D01*
X149837603Y-74002103D01*
X149627952Y-73933985D01*
X149519086Y-73916742D01*
X149410222Y-73899500D01*
X149189778Y-73899500D01*
X149117201Y-73910995D01*
X148972047Y-73933985D01*
X148762396Y-74002103D01*
X148762393Y-74002104D01*
X148565974Y-74102187D01*
X148387641Y-74231752D01*
X148387636Y-74231756D01*
X148231758Y-74387634D01*
X148187880Y-74448028D01*
X148114965Y-74548386D01*
X148059638Y-74591051D01*
X148014649Y-74599500D01*
X141749602Y-74599500D01*
X141682563Y-74579815D01*
X141639117Y-74531795D01*
X141632284Y-74518385D01*
X141511971Y-74352786D01*
X141367213Y-74208028D01*
X141201613Y-74087715D01*
X141201612Y-74087714D01*
X141201610Y-74087713D01*
X141113487Y-74042812D01*
X141019223Y-73994781D01*
X140824534Y-73931522D01*
X140649995Y-73903878D01*
X140622352Y-73899500D01*
X140417648Y-73899500D01*
X140393329Y-73903351D01*
X140215465Y-73931522D01*
X140020776Y-73994781D01*
X139838386Y-74087715D01*
X139672786Y-74208028D01*
X139528028Y-74352786D01*
X139407715Y-74518386D01*
X139314781Y-74700776D01*
X139251522Y-74895465D01*
X139219500Y-75097648D01*
X134200500Y-75097648D01*
X134168477Y-74895466D01*
X134143896Y-74819815D01*
X134105218Y-74700776D01*
X134071503Y-74634607D01*
X134012287Y-74518390D01*
X133961171Y-74448034D01*
X133891971Y-74352786D01*
X133747213Y-74208028D01*
X133581613Y-74087715D01*
X133581612Y-74087714D01*
X133581610Y-74087713D01*
X133493487Y-74042812D01*
X133399223Y-73994781D01*
X133204534Y-73931522D01*
X133029995Y-73903878D01*
X133002352Y-73899500D01*
X132797648Y-73899500D01*
X132773329Y-73903351D01*
X132595465Y-73931522D01*
X132400776Y-73994781D01*
X132218386Y-74087715D01*
X132052786Y-74208028D01*
X131908028Y-74352786D01*
X131787715Y-74518386D01*
X131694781Y-74700776D01*
X131677547Y-74753819D01*
X131638109Y-74811494D01*
X131573750Y-74838692D01*
X131559616Y-74839500D01*
X129469602Y-74839500D01*
X129402563Y-74819815D01*
X129359117Y-74771795D01*
X129352284Y-74758385D01*
X129231971Y-74592786D01*
X129087213Y-74448028D01*
X128921613Y-74327715D01*
X128921612Y-74327714D01*
X128921610Y-74327713D01*
X128832514Y-74282316D01*
X128739223Y-74234781D01*
X128544534Y-74171522D01*
X128369995Y-74143878D01*
X128342352Y-74139500D01*
X128137648Y-74139500D01*
X128113329Y-74143351D01*
X127935465Y-74171522D01*
X127740776Y-74234781D01*
X127558386Y-74327715D01*
X127392786Y-74448028D01*
X127248028Y-74592786D01*
X127127715Y-74758386D01*
X127034781Y-74940776D01*
X126971522Y-75135465D01*
X126939500Y-75337648D01*
X126939500Y-75542351D01*
X126971522Y-75744534D01*
X127034781Y-75939223D01*
X127127715Y-76121613D01*
X127248028Y-76287213D01*
X127392786Y-76431971D01*
X127547749Y-76544556D01*
X127558390Y-76552287D01*
X127647901Y-76597895D01*
X127651080Y-76599515D01*
X127701876Y-76647490D01*
X127718671Y-76715311D01*
X127696134Y-76781446D01*
X127651080Y-76820485D01*
X127558386Y-76867715D01*
X127392786Y-76988028D01*
X127248028Y-77132786D01*
X127127715Y-77298386D01*
X127034781Y-77480776D01*
X126971522Y-77675465D01*
X126939500Y-77877648D01*
X126939500Y-78082351D01*
X126971522Y-78284534D01*
X127034781Y-78479223D01*
X127127715Y-78661613D01*
X127248028Y-78827213D01*
X127392786Y-78971971D01*
X127547749Y-79084556D01*
X127558390Y-79092287D01*
X127649840Y-79138883D01*
X127651080Y-79139515D01*
X127701876Y-79187490D01*
X127718671Y-79255311D01*
X127696134Y-79321446D01*
X127651080Y-79360485D01*
X127558386Y-79407715D01*
X127392786Y-79528028D01*
X127248028Y-79672786D01*
X127127715Y-79838386D01*
X127034781Y-80020776D01*
X126971522Y-80215465D01*
X126939500Y-80417648D01*
X126939500Y-80622351D01*
X126971522Y-80824534D01*
X127034781Y-81019223D01*
X127127715Y-81201613D01*
X127248028Y-81367213D01*
X127392786Y-81511971D01*
X127547749Y-81624556D01*
X127558390Y-81632287D01*
X127649840Y-81678883D01*
X127651080Y-81679515D01*
X127701876Y-81727490D01*
X127718671Y-81795311D01*
X127696134Y-81861446D01*
X127651080Y-81900485D01*
X127558386Y-81947715D01*
X127392786Y-82068028D01*
X127248028Y-82212786D01*
X127127715Y-82378386D01*
X127034781Y-82560776D01*
X126971522Y-82755465D01*
X126939500Y-82957648D01*
X126939500Y-83162351D01*
X126971522Y-83364534D01*
X127034781Y-83559223D01*
X127098691Y-83684653D01*
X127111554Y-83709897D01*
X127127715Y-83741613D01*
X127248028Y-83907213D01*
X127392786Y-84051971D01*
X127547749Y-84164556D01*
X127558390Y-84172287D01*
X127649840Y-84218883D01*
X127651080Y-84219515D01*
X127701876Y-84267490D01*
X127718671Y-84335311D01*
X127696134Y-84401446D01*
X127651080Y-84440485D01*
X127558386Y-84487715D01*
X127392786Y-84608028D01*
X127248028Y-84752786D01*
X127127715Y-84918386D01*
X127034781Y-85100776D01*
X126971522Y-85295465D01*
X126939500Y-85497648D01*
X126939500Y-85702351D01*
X126971522Y-85904534D01*
X127034781Y-86099223D01*
X127127715Y-86281613D01*
X127248028Y-86447213D01*
X127392786Y-86591971D01*
X127547749Y-86704556D01*
X127558390Y-86712287D01*
X127649840Y-86758883D01*
X127651080Y-86759515D01*
X127701876Y-86807490D01*
X127718671Y-86875311D01*
X127696134Y-86941446D01*
X127651080Y-86980485D01*
X127558386Y-87027715D01*
X127392786Y-87148028D01*
X127248028Y-87292786D01*
X127127715Y-87458386D01*
X127034781Y-87640776D01*
X126971522Y-87835465D01*
X126939500Y-88037648D01*
X126939500Y-88242351D01*
X126971522Y-88444534D01*
X127034781Y-88639223D01*
X127092643Y-88752781D01*
X127123614Y-88813566D01*
X127127715Y-88821613D01*
X127248028Y-88987213D01*
X127392786Y-89131971D01*
X127529490Y-89231290D01*
X127558390Y-89252287D01*
X127649840Y-89298883D01*
X127651080Y-89299515D01*
X127701876Y-89347490D01*
X127718671Y-89415311D01*
X127696134Y-89481446D01*
X127651080Y-89520485D01*
X127558386Y-89567715D01*
X127392786Y-89688028D01*
X127248028Y-89832786D01*
X127127715Y-89998386D01*
X127034781Y-90180776D01*
X126971522Y-90375465D01*
X126939500Y-90577648D01*
X126939500Y-90782351D01*
X126971522Y-90984534D01*
X127034781Y-91179223D01*
X127127715Y-91361613D01*
X127248028Y-91527213D01*
X127392786Y-91671971D01*
X127547749Y-91784556D01*
X127558390Y-91792287D01*
X127649840Y-91838883D01*
X127651080Y-91839515D01*
X127701876Y-91887490D01*
X127718671Y-91955311D01*
X127696134Y-92021446D01*
X127651080Y-92060485D01*
X127558386Y-92107715D01*
X127392786Y-92228028D01*
X127248028Y-92372786D01*
X127127715Y-92538386D01*
X127034781Y-92720776D01*
X126971522Y-92915465D01*
X126939500Y-93117648D01*
X126939500Y-93322351D01*
X126971522Y-93524534D01*
X127034781Y-93719223D01*
X127127715Y-93901613D01*
X127248028Y-94067213D01*
X127392786Y-94211971D01*
X127547749Y-94324556D01*
X127558390Y-94332287D01*
X127649840Y-94378883D01*
X127651080Y-94379515D01*
X127701876Y-94427490D01*
X127718671Y-94495311D01*
X127696134Y-94561446D01*
X127651080Y-94600485D01*
X127558386Y-94647715D01*
X127392786Y-94768028D01*
X127248028Y-94912786D01*
X127127715Y-95078386D01*
X127034781Y-95260776D01*
X126971522Y-95455465D01*
X126939500Y-95657648D01*
X126939500Y-95862351D01*
X126971522Y-96064534D01*
X127034781Y-96259223D01*
X127127715Y-96441613D01*
X127248028Y-96607213D01*
X127392786Y-96751971D01*
X127547749Y-96864556D01*
X127558390Y-96872287D01*
X127649840Y-96918883D01*
X127651080Y-96919515D01*
X127701876Y-96967490D01*
X127718671Y-97035311D01*
X127696134Y-97101446D01*
X127651080Y-97140485D01*
X127558386Y-97187715D01*
X127392786Y-97308028D01*
X127248028Y-97452786D01*
X127127715Y-97618386D01*
X127034781Y-97800776D01*
X126971522Y-97995465D01*
X126939500Y-98197648D01*
X126939500Y-98402351D01*
X126971522Y-98604534D01*
X127034781Y-98799223D01*
X127102030Y-98931205D01*
X127114926Y-98999874D01*
X127088650Y-99064615D01*
X127031543Y-99104872D01*
X126991545Y-99111500D01*
X116588940Y-99111500D01*
X116548019Y-99122464D01*
X116548019Y-99122465D01*
X116510751Y-99132451D01*
X116436214Y-99152423D01*
X116436209Y-99152426D01*
X116299290Y-99231475D01*
X116299282Y-99231481D01*
X114512181Y-101018583D01*
X114450858Y-101052068D01*
X114381166Y-101047084D01*
X114325233Y-101005212D01*
X114300816Y-100939748D01*
X114300500Y-100930902D01*
X114300500Y-100737648D01*
X114268477Y-100535465D01*
X114223054Y-100395669D01*
X114205220Y-100340781D01*
X114205218Y-100340778D01*
X114205218Y-100340776D01*
X114149007Y-100230457D01*
X114112287Y-100158390D01*
X114096192Y-100136237D01*
X113991971Y-99992786D01*
X113847213Y-99848028D01*
X113681614Y-99727715D01*
X113675006Y-99724348D01*
X113588917Y-99680483D01*
X113538123Y-99632511D01*
X113521328Y-99564690D01*
X113543865Y-99498555D01*
X113588917Y-99459516D01*
X113681610Y-99412287D01*
X113760406Y-99355039D01*
X113847213Y-99291971D01*
X113847215Y-99291968D01*
X113847219Y-99291966D01*
X113991966Y-99147219D01*
X113991968Y-99147215D01*
X113991971Y-99147213D01*
X114051981Y-99064615D01*
X114112287Y-98981610D01*
X114205220Y-98799219D01*
X114268477Y-98604534D01*
X114300500Y-98402352D01*
X114300500Y-98197648D01*
X114268477Y-97995466D01*
X114205220Y-97800781D01*
X114205218Y-97800778D01*
X114205218Y-97800776D01*
X114171503Y-97734607D01*
X114112287Y-97618390D01*
X114055408Y-97540102D01*
X113991971Y-97452786D01*
X113847213Y-97308028D01*
X113681614Y-97187715D01*
X113675006Y-97184348D01*
X113588917Y-97140483D01*
X113538123Y-97092511D01*
X113521328Y-97024690D01*
X113543865Y-96958555D01*
X113588917Y-96919516D01*
X113681610Y-96872287D01*
X113774561Y-96804755D01*
X113847213Y-96751971D01*
X113847215Y-96751968D01*
X113847219Y-96751966D01*
X113991966Y-96607219D01*
X113991968Y-96607215D01*
X113991971Y-96607213D01*
X114067282Y-96503554D01*
X114112287Y-96441610D01*
X114205220Y-96259219D01*
X114268477Y-96064534D01*
X114300500Y-95862352D01*
X114300500Y-95657648D01*
X114297306Y-95637482D01*
X114268477Y-95455465D01*
X114238702Y-95363828D01*
X114205220Y-95260781D01*
X114205218Y-95260778D01*
X114205218Y-95260776D01*
X114171503Y-95194607D01*
X114112287Y-95078390D01*
X114104556Y-95067749D01*
X113991971Y-94912786D01*
X113847213Y-94768028D01*
X113681614Y-94647715D01*
X113675006Y-94644348D01*
X113588917Y-94600483D01*
X113538123Y-94552511D01*
X113521328Y-94484690D01*
X113543865Y-94418555D01*
X113588917Y-94379516D01*
X113681610Y-94332287D01*
X113702770Y-94316913D01*
X113847213Y-94211971D01*
X113847215Y-94211968D01*
X113847219Y-94211966D01*
X113991966Y-94067219D01*
X113991968Y-94067215D01*
X113991971Y-94067213D01*
X114046640Y-93991966D01*
X114112287Y-93901610D01*
X114205220Y-93719219D01*
X114268477Y-93524534D01*
X114300500Y-93322352D01*
X114300500Y-93117648D01*
X114268477Y-92915466D01*
X114205220Y-92720781D01*
X114205218Y-92720778D01*
X114205218Y-92720776D01*
X114169799Y-92651264D01*
X114112287Y-92538390D01*
X114084959Y-92500776D01*
X113991971Y-92372786D01*
X113847213Y-92228028D01*
X113681614Y-92107715D01*
X113675006Y-92104348D01*
X113588917Y-92060483D01*
X113538123Y-92012511D01*
X113521328Y-91944690D01*
X113543865Y-91878555D01*
X113588917Y-91839516D01*
X113681610Y-91792287D01*
X113702770Y-91776913D01*
X113847213Y-91671971D01*
X113847215Y-91671968D01*
X113847219Y-91671966D01*
X113991966Y-91527219D01*
X113991968Y-91527215D01*
X113991971Y-91527213D01*
X114044732Y-91454590D01*
X114112287Y-91361610D01*
X114205220Y-91179219D01*
X114268477Y-90984534D01*
X114300500Y-90782352D01*
X114300500Y-90577648D01*
X114300478Y-90577510D01*
X114268477Y-90375465D01*
X114230135Y-90257461D01*
X114205220Y-90180781D01*
X114205218Y-90180778D01*
X114205218Y-90180776D01*
X114171503Y-90114607D01*
X114112287Y-89998390D01*
X114078124Y-89951368D01*
X113991971Y-89832786D01*
X113847213Y-89688028D01*
X113681614Y-89567715D01*
X113675006Y-89564348D01*
X113588917Y-89520483D01*
X113538123Y-89472511D01*
X113521328Y-89404690D01*
X113543865Y-89338555D01*
X113588917Y-89299516D01*
X113681610Y-89252287D01*
X113710521Y-89231282D01*
X113847213Y-89131971D01*
X113847215Y-89131968D01*
X113847219Y-89131966D01*
X113991966Y-88987219D01*
X113991968Y-88987215D01*
X113991971Y-88987213D01*
X114044732Y-88914590D01*
X114112287Y-88821610D01*
X114205220Y-88639219D01*
X114268477Y-88444534D01*
X114300500Y-88242352D01*
X114300500Y-88037648D01*
X114268477Y-87835466D01*
X114205220Y-87640781D01*
X114205218Y-87640778D01*
X114205218Y-87640776D01*
X114171503Y-87574607D01*
X114112287Y-87458390D01*
X114104556Y-87447749D01*
X113991971Y-87292786D01*
X113847213Y-87148028D01*
X113681614Y-87027715D01*
X113675006Y-87024348D01*
X113588917Y-86980483D01*
X113538123Y-86932511D01*
X113521328Y-86864690D01*
X113543865Y-86798555D01*
X113588917Y-86759516D01*
X113681610Y-86712287D01*
X113702770Y-86696913D01*
X113847213Y-86591971D01*
X113847215Y-86591968D01*
X113847219Y-86591966D01*
X113991966Y-86447219D01*
X113991968Y-86447215D01*
X113991971Y-86447213D01*
X114082464Y-86322658D01*
X114112287Y-86281610D01*
X114205220Y-86099219D01*
X114268477Y-85904534D01*
X114300500Y-85702352D01*
X114300500Y-85497648D01*
X114268477Y-85295466D01*
X114263893Y-85281359D01*
X114205218Y-85100776D01*
X114130203Y-84953553D01*
X114112287Y-84918390D01*
X114102135Y-84904417D01*
X113991971Y-84752786D01*
X113847213Y-84608028D01*
X113681614Y-84487715D01*
X113598970Y-84445606D01*
X113588917Y-84440483D01*
X113538123Y-84392511D01*
X113521328Y-84324690D01*
X113543865Y-84258555D01*
X113588917Y-84219516D01*
X113681610Y-84172287D01*
X113779773Y-84100968D01*
X113847213Y-84051971D01*
X113847215Y-84051968D01*
X113847219Y-84051966D01*
X113991966Y-83907219D01*
X113991968Y-83907215D01*
X113991971Y-83907213D01*
X114057452Y-83817084D01*
X114112287Y-83741610D01*
X114205220Y-83559219D01*
X114268477Y-83364534D01*
X114300500Y-83162352D01*
X114300500Y-82957648D01*
X114268477Y-82755465D01*
X114205218Y-82560776D01*
X114171503Y-82494607D01*
X114112287Y-82378390D01*
X114058628Y-82304534D01*
X113991971Y-82212786D01*
X113847213Y-82068028D01*
X113681614Y-81947715D01*
X113675006Y-81944348D01*
X113588917Y-81900483D01*
X113538123Y-81852511D01*
X113521328Y-81784690D01*
X113543865Y-81718555D01*
X113588917Y-81679516D01*
X113681610Y-81632287D01*
X113702770Y-81616913D01*
X113847213Y-81511971D01*
X113847215Y-81511968D01*
X113847219Y-81511966D01*
X113991966Y-81367219D01*
X113991968Y-81367215D01*
X113991971Y-81367213D01*
X114044732Y-81294590D01*
X114112287Y-81201610D01*
X114205220Y-81019219D01*
X114268477Y-80824534D01*
X114300500Y-80622352D01*
X114300500Y-80417648D01*
X114268477Y-80215466D01*
X114205220Y-80020781D01*
X114205218Y-80020778D01*
X114205218Y-80020776D01*
X114171503Y-79954607D01*
X114112287Y-79838390D01*
X114104556Y-79827749D01*
X113991971Y-79672786D01*
X113847213Y-79528028D01*
X113681614Y-79407715D01*
X113675006Y-79404348D01*
X113588917Y-79360483D01*
X113538123Y-79312511D01*
X113521328Y-79244690D01*
X113543865Y-79178555D01*
X113588917Y-79139516D01*
X113681610Y-79092287D01*
X113702770Y-79076913D01*
X113847213Y-78971971D01*
X113847215Y-78971968D01*
X113847219Y-78971966D01*
X113991966Y-78827219D01*
X113991968Y-78827215D01*
X113991971Y-78827213D01*
X114044732Y-78754590D01*
X114112287Y-78661610D01*
X114205220Y-78479219D01*
X114268477Y-78284534D01*
X114300500Y-78082352D01*
X114300500Y-77877648D01*
X114268477Y-77675466D01*
X114205220Y-77480781D01*
X114205218Y-77480778D01*
X114205218Y-77480776D01*
X114171503Y-77414607D01*
X114112287Y-77298390D01*
X114104556Y-77287749D01*
X113991971Y-77132786D01*
X113847213Y-76988028D01*
X113681614Y-76867715D01*
X113675006Y-76864348D01*
X113588917Y-76820483D01*
X113538123Y-76772511D01*
X113521328Y-76704690D01*
X113543865Y-76638555D01*
X113588917Y-76599516D01*
X113681610Y-76552287D01*
X113702770Y-76536913D01*
X113847213Y-76431971D01*
X113847215Y-76431968D01*
X113847219Y-76431966D01*
X113991966Y-76287219D01*
X113991968Y-76287215D01*
X113991971Y-76287213D01*
X114061171Y-76191966D01*
X114112287Y-76121610D01*
X114205220Y-75939219D01*
X114268477Y-75744534D01*
X114300500Y-75542352D01*
X114300500Y-75337648D01*
X114268477Y-75135466D01*
X114205220Y-74940781D01*
X114205218Y-74940778D01*
X114205218Y-74940776D01*
X114171503Y-74874607D01*
X114112287Y-74758390D01*
X114070432Y-74700781D01*
X113991971Y-74592786D01*
X113847213Y-74448028D01*
X113681613Y-74327715D01*
X113681612Y-74327714D01*
X113681610Y-74327713D01*
X113592514Y-74282316D01*
X113499223Y-74234781D01*
X113304534Y-74171522D01*
X113129995Y-74143878D01*
X113102352Y-74139500D01*
X112897648Y-74139500D01*
X112873329Y-74143351D01*
X112695465Y-74171522D01*
X112500776Y-74234781D01*
X112318386Y-74327715D01*
X112152786Y-74448028D01*
X112008028Y-74592786D01*
X111887715Y-74758386D01*
X111794781Y-74940776D01*
X111731522Y-75135465D01*
X111699500Y-75337648D01*
X111699500Y-75542351D01*
X111731522Y-75744534D01*
X111794781Y-75939223D01*
X111887715Y-76121613D01*
X112008028Y-76287213D01*
X112152786Y-76431971D01*
X112307749Y-76544556D01*
X112318390Y-76552287D01*
X112407901Y-76597895D01*
X112411080Y-76599515D01*
X112461876Y-76647490D01*
X112478671Y-76715311D01*
X112456134Y-76781446D01*
X112411080Y-76820485D01*
X112318386Y-76867715D01*
X112152786Y-76988028D01*
X112008028Y-77132786D01*
X111887715Y-77298386D01*
X111794781Y-77480776D01*
X111731522Y-77675465D01*
X111699500Y-77877648D01*
X111699500Y-78082351D01*
X111731522Y-78284534D01*
X111794781Y-78479223D01*
X111887715Y-78661613D01*
X112008028Y-78827213D01*
X112152786Y-78971971D01*
X112307749Y-79084556D01*
X112318390Y-79092287D01*
X112409840Y-79138883D01*
X112411080Y-79139515D01*
X112461876Y-79187490D01*
X112478671Y-79255311D01*
X112456134Y-79321446D01*
X112411080Y-79360485D01*
X112318386Y-79407715D01*
X112152786Y-79528028D01*
X112008028Y-79672786D01*
X111887715Y-79838386D01*
X111794781Y-80020776D01*
X111731522Y-80215465D01*
X111699500Y-80417648D01*
X111699500Y-80622351D01*
X111731522Y-80824534D01*
X111794781Y-81019223D01*
X111887715Y-81201613D01*
X112008028Y-81367213D01*
X112152786Y-81511971D01*
X112307749Y-81624556D01*
X112318390Y-81632287D01*
X112409840Y-81678883D01*
X112411080Y-81679515D01*
X112461876Y-81727490D01*
X112478671Y-81795311D01*
X112456134Y-81861446D01*
X112411080Y-81900485D01*
X112318386Y-81947715D01*
X112152786Y-82068028D01*
X112008028Y-82212786D01*
X111887715Y-82378386D01*
X111794781Y-82560776D01*
X111731522Y-82755465D01*
X111699500Y-82957648D01*
X111699500Y-83162351D01*
X111731522Y-83364534D01*
X111794781Y-83559223D01*
X111858691Y-83684653D01*
X111871554Y-83709897D01*
X111887715Y-83741613D01*
X112008028Y-83907213D01*
X112152786Y-84051971D01*
X112307749Y-84164556D01*
X112318390Y-84172287D01*
X112409840Y-84218883D01*
X112411080Y-84219515D01*
X112461876Y-84267490D01*
X112478671Y-84335311D01*
X112456134Y-84401446D01*
X112411080Y-84440485D01*
X112318386Y-84487715D01*
X112152786Y-84608028D01*
X112008028Y-84752786D01*
X111887715Y-84918386D01*
X111794781Y-85100776D01*
X111731522Y-85295465D01*
X111699500Y-85497648D01*
X111699500Y-85702351D01*
X111731522Y-85904534D01*
X111794781Y-86099223D01*
X111887715Y-86281613D01*
X112008028Y-86447213D01*
X112152786Y-86591971D01*
X112307749Y-86704556D01*
X112318390Y-86712287D01*
X112409840Y-86758883D01*
X112411080Y-86759515D01*
X112461876Y-86807490D01*
X112478671Y-86875311D01*
X112456134Y-86941446D01*
X112411080Y-86980485D01*
X112318386Y-87027715D01*
X112152786Y-87148028D01*
X112008028Y-87292786D01*
X111887715Y-87458386D01*
X111794781Y-87640776D01*
X111731522Y-87835465D01*
X111699500Y-88037648D01*
X111699500Y-88242351D01*
X111731522Y-88444534D01*
X111794781Y-88639223D01*
X111852643Y-88752781D01*
X111883614Y-88813566D01*
X111887715Y-88821613D01*
X112008028Y-88987213D01*
X112152786Y-89131971D01*
X112289490Y-89231290D01*
X112318390Y-89252287D01*
X112409840Y-89298883D01*
X112411080Y-89299515D01*
X112461876Y-89347490D01*
X112478671Y-89415311D01*
X112456134Y-89481446D01*
X112411080Y-89520485D01*
X112318386Y-89567715D01*
X112152786Y-89688028D01*
X112008028Y-89832786D01*
X111887715Y-89998386D01*
X111794781Y-90180776D01*
X111731522Y-90375465D01*
X111699500Y-90577648D01*
X111699500Y-90782351D01*
X111731522Y-90984534D01*
X111794781Y-91179223D01*
X111887715Y-91361613D01*
X112008028Y-91527213D01*
X112152786Y-91671971D01*
X112307749Y-91784556D01*
X112318390Y-91792287D01*
X112409840Y-91838883D01*
X112411080Y-91839515D01*
X112461876Y-91887490D01*
X112478671Y-91955311D01*
X112456134Y-92021446D01*
X112411080Y-92060485D01*
X112318386Y-92107715D01*
X112152786Y-92228028D01*
X112008028Y-92372786D01*
X111887715Y-92538385D01*
X111880883Y-92551795D01*
X111832909Y-92602591D01*
X111770398Y-92619500D01*
X100499766Y-92619500D01*
X100432727Y-92599815D01*
X100430875Y-92598602D01*
X100299185Y-92510609D01*
X100299172Y-92510602D01*
X100153501Y-92450264D01*
X100153489Y-92450261D01*
X99998845Y-92419500D01*
X99998842Y-92419500D01*
X99841158Y-92419500D01*
X99841155Y-92419500D01*
X99686510Y-92450261D01*
X99686498Y-92450264D01*
X99540827Y-92510602D01*
X99540814Y-92510609D01*
X99409125Y-92598602D01*
X99342447Y-92619480D01*
X99340234Y-92619500D01*
X95126669Y-92619500D01*
X95126653Y-92619499D01*
X95119057Y-92619499D01*
X94960943Y-92619499D01*
X94853587Y-92648265D01*
X94808210Y-92660424D01*
X94808209Y-92660425D01*
X94758096Y-92689359D01*
X94758095Y-92689360D01*
X94714689Y-92714420D01*
X94671285Y-92739479D01*
X94671282Y-92739481D01*
X94559478Y-92851286D01*
X87274526Y-100136237D01*
X87213203Y-100169722D01*
X87160478Y-100169158D01*
X87160448Y-100169349D01*
X87159156Y-100169144D01*
X87157903Y-100169131D01*
X87155636Y-100168586D01*
X86986196Y-100141750D01*
X86959361Y-100137500D01*
X86760639Y-100137500D01*
X86695214Y-100147862D01*
X86564362Y-100168587D01*
X86375370Y-100229993D01*
X86375367Y-100229994D01*
X86198305Y-100320213D01*
X86037533Y-100437021D01*
X85897021Y-100577533D01*
X85897021Y-100577534D01*
X85897019Y-100577536D01*
X85859772Y-100628802D01*
X85806817Y-100701688D01*
X85751487Y-100744353D01*
X85681873Y-100750332D01*
X85620078Y-100717726D01*
X85585721Y-100656887D01*
X85582499Y-100628802D01*
X85582499Y-100590129D01*
X85582498Y-100590123D01*
X85582497Y-100590116D01*
X85576623Y-100535464D01*
X85576091Y-100530516D01*
X85525797Y-100395671D01*
X85525793Y-100395664D01*
X85439547Y-100280455D01*
X85439544Y-100280452D01*
X85324335Y-100194206D01*
X85324328Y-100194202D01*
X85189482Y-100143908D01*
X85189483Y-100143908D01*
X85129883Y-100137501D01*
X85129881Y-100137500D01*
X85129873Y-100137500D01*
X85129864Y-100137500D01*
X83510129Y-100137500D01*
X83510123Y-100137501D01*
X83450516Y-100143908D01*
X83315671Y-100194202D01*
X83315664Y-100194206D01*
X83200455Y-100280452D01*
X83200452Y-100280455D01*
X83114206Y-100395664D01*
X83114202Y-100395671D01*
X83063908Y-100530517D01*
X83057501Y-100590116D01*
X83057501Y-100590123D01*
X83057500Y-100590135D01*
X81500500Y-100590135D01*
X81500500Y-71590155D01*
X90928000Y-71590155D01*
X90928000Y-72150000D01*
X91901184Y-72150000D01*
X91885124Y-72166060D01*
X91834964Y-72252939D01*
X91809000Y-72349840D01*
X91809000Y-72450160D01*
X91834964Y-72547061D01*
X91885124Y-72633940D01*
X91901184Y-72650000D01*
X90928000Y-72650000D01*
X90928000Y-73209844D01*
X90934401Y-73269372D01*
X90934403Y-73269379D01*
X90984645Y-73404086D01*
X90984649Y-73404093D01*
X91070809Y-73519187D01*
X91070812Y-73519190D01*
X91185906Y-73605350D01*
X91185913Y-73605354D01*
X91320620Y-73655596D01*
X91320627Y-73655598D01*
X91380155Y-73661999D01*
X91380172Y-73662000D01*
X91940000Y-73662000D01*
X91940000Y-72688816D01*
X91956060Y-72704876D01*
X92042939Y-72755036D01*
X92139840Y-72781000D01*
X92240160Y-72781000D01*
X92337061Y-72755036D01*
X92423940Y-72704876D01*
X92440000Y-72688816D01*
X92440000Y-73662000D01*
X92999828Y-73662000D01*
X92999844Y-73661999D01*
X93059372Y-73655598D01*
X93059379Y-73655596D01*
X93194086Y-73605354D01*
X93194093Y-73605350D01*
X93309187Y-73519190D01*
X93309190Y-73519187D01*
X93395350Y-73404093D01*
X93395354Y-73404086D01*
X93445596Y-73269379D01*
X93445598Y-73269372D01*
X93451999Y-73209844D01*
X93452000Y-73209827D01*
X93452000Y-73170510D01*
X93471685Y-73103471D01*
X93524489Y-73057716D01*
X93593647Y-73047772D01*
X93657203Y-73076797D01*
X93676318Y-73097625D01*
X93729272Y-73170510D01*
X93767019Y-73222464D01*
X93907536Y-73362981D01*
X94068306Y-73479787D01*
X94155149Y-73524035D01*
X94245367Y-73570005D01*
X94245370Y-73570006D01*
X94339866Y-73600709D01*
X94434364Y-73631413D01*
X94630639Y-73662500D01*
X94630640Y-73662500D01*
X94829360Y-73662500D01*
X94829361Y-73662500D01*
X95025636Y-73631413D01*
X95214632Y-73570005D01*
X95391694Y-73479787D01*
X95552464Y-73362981D01*
X95692981Y-73222464D01*
X95809787Y-73061694D01*
X95889515Y-72905218D01*
X95937490Y-72854423D01*
X96005311Y-72837628D01*
X96071446Y-72860165D01*
X96110484Y-72905218D01*
X96190213Y-73061694D01*
X96307019Y-73222464D01*
X96447536Y-73362981D01*
X96608306Y-73479787D01*
X96695149Y-73524035D01*
X96785367Y-73570005D01*
X96785370Y-73570006D01*
X96879866Y-73600709D01*
X96974364Y-73631413D01*
X97170639Y-73662500D01*
X97170640Y-73662500D01*
X97369360Y-73662500D01*
X97369361Y-73662500D01*
X97565636Y-73631413D01*
X97754632Y-73570005D01*
X97931694Y-73479787D01*
X98092464Y-73362981D01*
X98232981Y-73222464D01*
X98349787Y-73061694D01*
X98429515Y-72905218D01*
X98477490Y-72854423D01*
X98545311Y-72837628D01*
X98611446Y-72860165D01*
X98650484Y-72905218D01*
X98730213Y-73061694D01*
X98847019Y-73222464D01*
X98987536Y-73362981D01*
X99148306Y-73479787D01*
X99235149Y-73524035D01*
X99325367Y-73570005D01*
X99325370Y-73570006D01*
X99419866Y-73600709D01*
X99514364Y-73631413D01*
X99710639Y-73662500D01*
X99710640Y-73662500D01*
X99909360Y-73662500D01*
X99909361Y-73662500D01*
X100105636Y-73631413D01*
X100294632Y-73570005D01*
X100471694Y-73479787D01*
X100632464Y-73362981D01*
X100772981Y-73222464D01*
X100889787Y-73061694D01*
X100980005Y-72884632D01*
X101041413Y-72695636D01*
X101072500Y-72499361D01*
X101072500Y-72300639D01*
X101041413Y-72104364D01*
X100980005Y-71915368D01*
X100980005Y-71915367D01*
X100934035Y-71825149D01*
X100889787Y-71738306D01*
X100772981Y-71577536D01*
X100632464Y-71437019D01*
X100471694Y-71320213D01*
X100394360Y-71280809D01*
X100294632Y-71229994D01*
X100294629Y-71229993D01*
X100105637Y-71168587D01*
X100007498Y-71153043D01*
X99909361Y-71137500D01*
X99710639Y-71137500D01*
X99645214Y-71147862D01*
X99514362Y-71168587D01*
X99325370Y-71229993D01*
X99325367Y-71229994D01*
X99148305Y-71320213D01*
X98987533Y-71437021D01*
X98847021Y-71577533D01*
X98730213Y-71738305D01*
X98650485Y-71894780D01*
X98602510Y-71945576D01*
X98534689Y-71962371D01*
X98468554Y-71939833D01*
X98429515Y-71894780D01*
X98410179Y-71856832D01*
X98349787Y-71738306D01*
X98232981Y-71577536D01*
X98092464Y-71437019D01*
X97931694Y-71320213D01*
X97854360Y-71280809D01*
X97754632Y-71229994D01*
X97754629Y-71229993D01*
X97565637Y-71168587D01*
X97467498Y-71153043D01*
X97369361Y-71137500D01*
X97170639Y-71137500D01*
X97105214Y-71147862D01*
X96974362Y-71168587D01*
X96785370Y-71229993D01*
X96785367Y-71229994D01*
X96608305Y-71320213D01*
X96447533Y-71437021D01*
X96307021Y-71577533D01*
X96190213Y-71738305D01*
X96110485Y-71894780D01*
X96062510Y-71945576D01*
X95994689Y-71962371D01*
X95928554Y-71939833D01*
X95889515Y-71894780D01*
X95870179Y-71856832D01*
X95809787Y-71738306D01*
X95692981Y-71577536D01*
X95552464Y-71437019D01*
X95391694Y-71320213D01*
X95314360Y-71280809D01*
X95214632Y-71229994D01*
X95214629Y-71229993D01*
X95025637Y-71168587D01*
X94927498Y-71153043D01*
X94829361Y-71137500D01*
X94630639Y-71137500D01*
X94565214Y-71147862D01*
X94434362Y-71168587D01*
X94245370Y-71229993D01*
X94245367Y-71229994D01*
X94068305Y-71320213D01*
X93907533Y-71437021D01*
X93767021Y-71577533D01*
X93767021Y-71577534D01*
X93767019Y-71577536D01*
X93729273Y-71629489D01*
X93676318Y-71702375D01*
X93620988Y-71745040D01*
X93551374Y-71751019D01*
X93489579Y-71718413D01*
X93455222Y-71657574D01*
X93452000Y-71629489D01*
X93452000Y-71590172D01*
X93451999Y-71590155D01*
X93445598Y-71530627D01*
X93445596Y-71530620D01*
X93395354Y-71395913D01*
X93395350Y-71395906D01*
X93309190Y-71280812D01*
X93309187Y-71280809D01*
X93194093Y-71194649D01*
X93194086Y-71194645D01*
X93059379Y-71144403D01*
X93059372Y-71144401D01*
X92999844Y-71138000D01*
X92440000Y-71138000D01*
X92440000Y-72111184D01*
X92423940Y-72095124D01*
X92337061Y-72044964D01*
X92240160Y-72019000D01*
X92139840Y-72019000D01*
X92042939Y-72044964D01*
X91956060Y-72095124D01*
X91940000Y-72111184D01*
X91940000Y-71138000D01*
X91380155Y-71138000D01*
X91320627Y-71144401D01*
X91320620Y-71144403D01*
X91185913Y-71194645D01*
X91185906Y-71194649D01*
X91070812Y-71280809D01*
X91070809Y-71280812D01*
X90984649Y-71395906D01*
X90984645Y-71395913D01*
X90934403Y-71530620D01*
X90934401Y-71530627D01*
X90928000Y-71590155D01*
X81500500Y-71590155D01*
X81500500Y-68624500D01*
X81520185Y-68557461D01*
X81572989Y-68511706D01*
X81624500Y-68500500D01*
X155375500Y-68500500D01*
X155442539Y-68520185D01*
G37*
%TD.AperFunction*%
%TD*%
M02*
