M48
; DRILL file {KiCad 9.0.6} date 2026-01-04T15:49:11-0600
; FORMAT={-:-/ absolute / metric / decimal}
; #@! TF.CreationDate,2026-01-04T15:49:11-06:00
; #@! TF.GenerationSoftware,Kicad,Pcbnew,9.0.6
; #@! TF.FileFunction,Plated,1,4,PTH
FMAT,2
METRIC
; #@! TA.AperFunction,Plated,PTH,ViaDrill
T1C0.300
; #@! TA.AperFunction,Plated,PTH,ComponentDrill
T2C0.762
; #@! TA.AperFunction,Plated,PTH,ComponentDrill
T3C0.800
; #@! TA.AperFunction,Plated,PTH,ComponentDrill
T4C0.900
; #@! TA.AperFunction,Plated,PTH,ComponentDrill
T5C1.000
; #@! TA.AperFunction,Plated,PTH,ComponentDrill
T6C1.100
%
G90
G05
T1
X97.3Y-93.8
X99.92Y-93.22
T2
X84.32Y-101.4
X86.86Y-101.4
X89.4Y-101.4
X91.94Y-101.4
X92.19Y-72.4
X94.48Y-101.4
X94.73Y-72.4
X97.27Y-72.4
X99.81Y-72.4
T3
X132.9Y-75.2
X134.0Y-95.6
X134.0Y-100.6
X134.2Y-107.0
X134.2Y-112.0
X134.5Y-84.6
X134.5Y-89.6
X139.5Y-82.0
X139.5Y-89.62
X139.5Y-93.0
X139.5Y-100.62
X139.5Y-104.44
X139.5Y-112.06
X140.52Y-75.2
T4
X149.3Y-75.3
X151.84Y-75.3
T5
X113.0Y-75.44
X113.0Y-77.98
X113.0Y-80.52
X113.0Y-83.06
X113.0Y-85.6
X113.0Y-88.14
X113.0Y-90.68
X113.0Y-93.22
X113.0Y-95.76
X113.0Y-98.3
X113.0Y-100.84
X113.0Y-103.38
X113.0Y-105.92
X113.0Y-108.46
X113.0Y-111.0
X128.24Y-75.44
X128.24Y-77.98
X128.24Y-80.52
X128.24Y-83.06
X128.24Y-85.6
X128.24Y-88.14
X128.24Y-90.68
X128.24Y-93.22
X128.24Y-95.76
X128.24Y-98.3
X128.24Y-100.84
X128.24Y-103.38
X128.24Y-105.92
X128.24Y-108.46
X128.24Y-111.0
T6
X145.5Y-85.1
X145.5Y-89.6
X145.75Y-96.15
X145.75Y-100.65
X145.75Y-107.55
X145.75Y-112.05
X152.0Y-85.1
X152.0Y-89.6
X152.25Y-96.15
X152.25Y-100.65
X152.25Y-107.55
X152.25Y-112.05
M30
